<svg width="360" height="120" viewBox="0 0 360 120" fill="none" xmlns="http://www.w3.org/2000/svg">
<rect width="360" height="120" fill="#E2E2E4"/>
<!-- <rect width="360" height="120" stroke="white"/> -->
<path d="M96.4339 36.3724L87.2097 41.669L96.4339 46.9655L87.2097 52.1793L96.4339 57.4759L87.2097 62.6897L96.4339 67.9862L108.425 61.2L114.966 67.9862V57.5173L124.19 52.2207L96.4339 36.3724ZM113.289 63.6L98.1111 47.8759L113.289 56.4828V63.6Z" fill="black"/>
<path d="M273.79 60H270.52V54.7035H267.585V60H264.231V62.8138H267.585V76.5517H270.52V62.7724H273.79V60ZM257.019 59.5862C256.046 59.5335 255.076 59.7353 254.207 60.1713C253.338 60.6072 252.602 61.2619 252.071 62.069V60H249.136V76.5517H252.071V67.0759C252.018 66.4163 252.103 65.753 252.319 65.1268C252.535 64.5006 252.879 63.9247 253.329 63.4345C254.125 62.6982 255.173 62.2846 256.264 62.2759C256.724 62.2528 257.184 62.3215 257.616 62.4779C258.048 62.6343 258.444 62.8752 258.78 63.1862C259.113 63.5395 259.367 63.9577 259.526 64.4139C259.684 64.87 259.745 65.354 259.702 65.8345V76.4276H262.637V65.669C262.656 64.522 262.397 63.3872 261.883 62.3586C261.419 61.4766 260.724 60.7335 259.87 60.2069C258.987 59.7655 258.009 59.5385 257.019 59.5448V59.5862ZM232.91 67.0759C233.069 65.7322 233.726 64.4941 234.755 63.6C235.812 62.7268 237.151 62.2569 238.529 62.2759C239.816 62.2566 241.067 62.6975 242.051 63.5173C242.571 63.9636 242.995 64.5086 243.297 65.12C243.6 65.7313 243.775 66.3965 243.812 67.0759H232.91ZM246.747 69.5586C246.816 69.1208 246.844 68.6775 246.83 68.2345C246.837 66.716 246.492 65.2161 245.824 63.8483C245.182 62.5409 244.198 61.4266 242.973 60.6207C241.673 59.8043 240.152 59.4 238.612 59.4621C237.027 59.4522 235.465 59.8516 234.084 60.6207C232.773 61.3628 231.698 62.4521 230.982 63.7655C230.229 65.1358 229.853 66.6765 229.891 68.2345C229.853 69.7925 230.229 71.3332 230.982 72.7035C231.698 74.0169 232.773 75.1062 234.084 75.8483C235.465 76.6174 237.027 77.0168 238.612 77.0069C240.339 77.0235 242.032 76.5338 243.476 75.6C244.782 74.7229 245.756 73.4418 246.243 71.9586H243.225C242.866 72.7264 242.242 73.3426 241.464 73.6966C240.414 74.2159 239.238 74.4368 238.068 74.3345C236.898 74.2322 235.78 73.8107 234.839 73.1173C233.767 72.2112 233.079 70.9413 232.91 69.5586H246.747ZM218.445 74.069C217.391 74.0778 216.352 73.8214 215.426 73.3241C214.523 72.8052 213.772 72.0638 213.246 71.1724C212.75 70.2555 212.491 69.2323 212.491 68.1931C212.491 67.1539 212.75 66.1307 213.246 65.2138C213.772 64.3224 214.523 63.581 215.426 63.0621C216.355 62.5731 217.392 62.3173 218.445 62.3173C219.498 62.3173 220.535 62.5731 221.464 63.0621C222.367 63.581 223.118 64.3224 223.644 65.2138C224.14 66.1307 224.399 67.1539 224.399 68.1931C224.399 69.2323 224.14 70.2555 223.644 71.1724C223.118 72.0638 222.367 72.8052 221.464 73.3241C220.538 73.8214 219.499 74.0778 218.445 74.069ZM224.399 60V62.8966C223.717 61.8919 222.795 61.0678 221.715 60.4966C220.581 59.896 219.313 59.5831 218.026 59.5862C216.522 59.5985 215.048 59.9979 213.749 60.7448C212.438 61.4869 211.363 62.5762 210.646 63.8897C209.878 65.1972 209.473 66.6817 209.472 68.1931C209.473 69.7307 209.878 71.2418 210.646 72.5793C211.387 73.8755 212.456 74.9593 213.749 75.7241C215.039 76.4918 216.519 76.8928 218.026 76.8828C219.282 76.8914 220.521 76.5937 221.633 76.0163C222.745 75.4388 223.695 74.5993 224.399 73.5724V75.8897C224.429 76.5733 224.318 77.2559 224.073 77.896C223.828 78.5362 223.454 79.1206 222.973 79.6138C221.828 80.5625 220.356 81.037 218.864 80.9379C217.907 80.9806 216.954 80.7812 216.097 80.3586C215.369 80.0556 214.733 79.5708 214.252 78.9517C213.872 78.4498 213.666 77.8403 213.665 77.2138H210.73C210.735 78.4158 211.149 79.5814 211.904 80.5242C212.679 81.5326 213.725 82.3066 214.923 82.7586C216.159 83.3178 217.505 83.6004 218.864 83.5862C220.312 83.589 221.744 83.2782 223.057 82.6759C224.324 82.0995 225.399 81.1814 226.16 80.0276C226.959 78.7634 227.367 77.2966 227.334 75.8069V60H224.399ZM203.938 76.5517H206.915V60H203.98L203.938 76.5517ZM203.938 57.0207H206.915V53.3793H203.98L203.938 57.0207ZM197.397 76.5517H200.332V52.6759H197.397V76.5517ZM190.856 76.5517H193.791V52.6759H190.856V76.5517ZM174.588 67.1173C174.747 65.7736 175.404 64.5355 176.433 63.6414C177.489 62.7682 178.828 62.2983 180.206 62.3173C181.494 62.2979 182.745 62.7389 183.728 63.5586C184.249 64.0049 184.673 64.55 184.975 65.1613C185.278 65.7727 185.453 66.4379 185.489 67.1173H174.588ZM188.424 69.6C188.494 69.1622 188.522 68.7189 188.508 68.2759C188.514 66.7574 188.17 65.2574 187.502 63.8897C186.86 62.5823 185.876 61.468 184.651 60.6621C183.351 59.8457 181.83 59.4414 180.29 59.5035C178.704 59.4936 177.143 59.893 175.762 60.6621C174.451 61.4041 173.376 62.4935 172.659 63.8069C171.907 65.1772 171.531 66.7179 171.569 68.2759C171.531 69.8339 171.907 71.3746 172.659 72.7448C173.376 74.0583 174.451 75.1476 175.762 75.8897C177.143 76.6588 178.704 77.0582 180.29 77.0483C182.017 77.0648 183.71 76.5752 185.154 75.6414C186.46 74.7643 187.434 73.4832 187.921 72H184.902C184.544 72.7678 183.919 73.384 183.141 73.7379C182.091 74.2573 180.916 74.4782 179.746 74.3759C178.576 74.2736 177.458 73.8521 176.517 73.1586C175.972 72.7217 175.52 72.182 175.189 71.571C174.858 70.9599 174.654 70.2899 174.588 69.6H188.424ZM171.15 60H167.879V54.7035H164.986V60H161.632V62.8138H164.986V76.5517H167.921V62.7724H171.192L171.15 60ZM150.731 74.1931C149.677 74.2019 148.638 73.9456 147.712 73.4483C146.809 72.9294 146.058 72.1879 145.532 71.2966C145.036 70.3796 144.777 69.3564 144.777 68.3173C144.777 67.2781 145.036 66.2549 145.532 65.3379C146.034 64.4288 146.791 63.6818 147.712 63.1862C148.641 62.6972 149.678 62.4414 150.731 62.4414C151.784 62.4414 152.821 62.6972 153.75 63.1862C154.653 63.7051 155.404 64.4466 155.93 65.3379C156.425 66.2549 156.685 67.2781 156.685 68.3173C156.685 69.3564 156.425 70.3796 155.93 71.2966C155.428 72.2057 154.671 72.9527 153.75 73.4483C152.832 73.9652 151.787 74.2228 150.731 74.1931ZM156.727 53.3793V62.8138C156.035 61.7809 155.085 60.9413 153.968 60.376C152.852 59.8107 151.607 59.5387 150.353 59.5862C148.875 59.5875 147.425 59.9882 146.161 60.7448C144.868 61.5103 143.799 62.5939 143.058 63.8897C142.288 65.2267 141.884 66.7381 141.884 68.2759C141.884 69.8136 142.288 71.325 143.058 72.6621C143.799 73.9578 144.868 75.0415 146.161 75.8069C147.425 76.5635 148.875 76.9642 150.353 76.9655C151.635 77.0059 152.905 76.721 154.043 76.1379C155.107 75.5437 156.023 74.724 156.727 73.7379V76.5517H159.662V53.3793H156.727ZM130.312 74.2345C129.258 74.2433 128.219 73.987 127.293 73.4897C126.39 72.9707 125.638 72.2293 125.113 71.3379C124.617 70.421 124.358 69.3978 124.358 68.3586C124.358 67.3194 124.617 66.2962 125.113 65.3793C125.615 64.4702 126.372 63.7232 127.293 63.2276C128.222 62.7386 129.259 62.4828 130.312 62.4828C131.365 62.4828 132.402 62.7386 133.331 63.2276C134.234 63.7465 134.985 64.4879 135.511 65.3793C136.006 66.2962 136.266 67.3194 136.266 68.3586C136.266 69.3978 136.006 70.421 135.511 71.3379C135.009 72.247 134.252 72.9941 133.331 73.4897C132.413 74.0065 131.368 74.2642 130.312 74.2345ZM136.266 60V62.8138C135.574 61.7809 134.624 60.9413 133.507 60.376C132.391 59.8107 131.146 59.5387 129.892 59.5862C128.386 59.5909 126.908 59.9922 125.61 60.7486C124.313 61.5051 123.244 62.5894 122.513 63.8897C121.743 65.2267 121.339 66.7381 121.339 68.2759C121.339 69.8136 121.743 71.325 122.513 72.6621C123.244 73.9623 124.313 75.0466 125.61 75.8031C126.908 76.5596 128.386 76.9608 129.892 76.9655C131.174 77.0059 132.444 76.721 133.582 76.1379C134.646 75.5437 135.562 74.724 136.266 73.7379V76.5517H139.201V60H136.266Z" fill="black"/>
</svg>
