<svg width="360" height="120" viewBox="0 0 360 120" fill="none" xmlns="http://www.w3.org/2000/svg">
<rect width="360" height="120" fill="#282240"/>
<!-- <rect width="360" height="120" stroke="white"/> -->
<path d="M92.2864 77.1905L95.631 72.7444L92.4902 69.3498H93.4491L97.9639 74.3441V69.3498H98.7189V74.3441L103.234 69.3498H104.193L101.037 72.7444L104.396 77.1905H103.468L100.561 73.2852L98.7189 75.2679V77.1905H97.9639V75.2679L96.1218 73.2702L93.215 77.1905H92.2864ZM106.231 77.1905V69.3498H106.994V76.1916L112.339 69.3498H113.102V77.1905H112.339V70.3487L106.994 77.1905H106.231ZM114.597 77.1905L114.74 76.4995C114.987 76.5696 115.185 76.6047 115.336 76.6047C115.508 76.6047 115.651 76.5922 115.767 76.5671C115.888 76.5371 116.016 76.4695 116.152 76.3644C116.288 76.2592 116.401 76.1116 116.492 75.9213C116.582 75.731 116.67 75.4682 116.756 75.1327C116.846 74.7972 116.917 74.3917 116.967 73.9161C117.023 73.4354 117.068 72.8471 117.103 72.1511C117.138 71.4552 117.158 70.6591 117.163 69.7629V69.3498H122.532V77.1905H121.769V70.0257H117.888V70.236C117.888 71.1523 117.866 71.9659 117.82 72.6768C117.78 73.3828 117.725 73.9837 117.654 74.4793C117.589 74.975 117.498 75.3981 117.382 75.7485C117.267 76.094 117.148 76.3693 117.028 76.5746C116.907 76.7749 116.756 76.9326 116.575 77.0478C116.393 77.1579 116.22 77.228 116.054 77.2581C115.893 77.2931 115.696 77.3106 115.465 77.3106C115.178 77.3106 114.888 77.2706 114.597 77.1905ZM124.872 73.2702C124.872 72.7244 124.975 72.2012 125.182 71.7005C125.388 71.1998 125.667 70.7642 126.02 70.3937C126.372 70.0182 126.802 69.7203 127.311 69.5C127.819 69.2747 128.36 69.162 128.934 69.162C129.694 69.162 130.383 69.3498 131.003 69.7253C131.627 70.0958 132.11 70.5965 132.452 71.2274C132.799 71.8532 132.973 72.5342 132.973 73.2702C132.973 74.0011 132.799 74.6796 132.452 75.3054C132.105 75.9312 131.617 76.4345 130.987 76.815C130.363 77.1905 129.669 77.3782 128.904 77.3782C128.335 77.3782 127.799 77.2681 127.296 77.0478C126.792 76.8275 126.364 76.5321 126.012 76.1616C125.66 75.7911 125.38 75.3555 125.174 74.8548C124.973 74.3491 124.872 73.8209 124.872 73.2702ZM125.687 73.2702C125.687 74.2164 125.999 75.0201 126.624 75.6809C127.253 76.3368 128.023 76.6647 128.934 76.6647C129.508 76.6647 130.041 76.5145 130.534 76.2142C131.028 75.9087 131.42 75.4957 131.712 74.975C132.004 74.4542 132.15 73.886 132.15 73.2702C132.15 72.3289 131.833 71.5278 131.199 70.8669C130.565 70.201 129.8 69.868 128.904 69.868C128.32 69.868 127.781 70.0207 127.288 70.3261C126.795 70.6266 126.405 71.0396 126.118 71.5653C125.831 72.086 125.687 72.6543 125.687 73.2702ZM135.298 77.1905V69.3498H136.061V76.1916L141.406 69.3498H142.169V77.1905H141.406V70.3487L136.061 77.1905H135.298ZM136.65 66.3007L137.284 66.1655C137.485 66.9115 137.969 67.2845 138.734 67.2845C139.504 67.2845 139.99 66.9115 140.191 66.1655L140.825 66.3007C140.729 66.8113 140.49 67.2344 140.108 67.5699C139.725 67.9053 139.267 68.0731 138.734 68.0731C138.2 68.0731 137.742 67.9053 137.36 67.5699C136.982 67.2344 136.746 66.8113 136.65 66.3007ZM149.674 77.1905V69.3498H150.436V74.3741L155.321 69.3498H156.325L152.875 72.8195L156.431 77.1905H155.472L152.354 73.3603L150.436 75.2829V77.1905H149.674ZM157.729 73.2702C157.729 72.7244 157.833 72.2012 158.039 71.7005C158.245 71.1998 158.525 70.7642 158.877 70.3937C159.229 70.0182 159.66 69.7203 160.168 69.5C160.676 69.2747 161.217 69.162 161.791 69.162C162.551 69.162 163.241 69.3498 163.86 69.7253C164.484 70.0958 164.967 70.5965 165.31 71.2274C165.657 71.8532 165.831 72.5342 165.831 73.2702C165.831 74.0011 165.657 74.6796 165.31 75.3054C164.962 75.9312 164.474 76.4345 163.845 76.815C163.221 77.1905 162.526 77.3782 161.761 77.3782C161.192 77.3782 160.656 77.2681 160.153 77.0478C159.65 76.8275 159.222 76.5321 158.869 76.1616C158.517 75.7911 158.238 75.3555 158.031 74.8548C157.83 74.3491 157.729 73.8209 157.729 73.2702ZM158.545 73.2702C158.545 74.2164 158.857 75.0201 159.481 75.6809C160.11 76.3368 160.88 76.6647 161.791 76.6647C162.365 76.6647 162.899 76.5145 163.392 76.2142C163.885 75.9087 164.278 75.4957 164.57 74.975C164.862 74.4542 165.008 73.886 165.008 73.2702C165.008 72.3289 164.69 71.5278 164.056 70.8669C163.422 70.201 162.657 69.868 161.761 69.868C161.177 69.868 160.639 70.0207 160.145 70.3261C159.652 70.6266 159.262 71.0396 158.975 71.5653C158.688 72.086 158.545 72.6543 158.545 73.2702ZM168.156 77.1905V69.3498H168.843L172.059 73.856L175.276 69.3498H175.955V77.1905H175.192V70.6566L172.021 74.99L168.888 70.6566V77.1905H168.156ZM178.832 77.1905V69.3498H185.393V77.1905H184.63V70.0257H179.594V77.1905H178.832ZM186.895 77.1905L187.038 76.4995C187.285 76.5696 187.484 76.6047 187.635 76.6047C187.806 76.6047 187.949 76.5922 188.065 76.5671C188.186 76.5371 188.314 76.4695 188.45 76.3644C188.586 76.2592 188.7 76.1116 188.79 75.9213C188.881 75.731 188.969 75.4682 189.054 75.1327C189.144 74.7972 189.215 74.3917 189.265 73.9161C189.321 73.4354 189.366 72.8471 189.402 72.1511C189.436 71.4552 189.456 70.6591 189.462 69.7629V69.3498H194.83V77.1905H194.068V70.0257H190.187V70.236C190.187 71.1523 190.164 71.9659 190.119 72.6768C190.079 73.3828 190.023 73.9837 189.953 74.4793C189.888 74.975 189.797 75.3981 189.681 75.7485C189.565 76.094 189.446 76.3693 189.326 76.5746C189.205 76.7749 189.054 76.9326 188.873 77.0478C188.691 77.1579 188.518 77.228 188.352 77.2581C188.191 77.2931 187.995 77.3106 187.763 77.3106C187.476 77.3106 187.187 77.2706 186.895 77.1905ZM197.17 73.2551C197.17 72.6944 197.266 72.1636 197.458 71.663C197.649 71.1573 197.908 70.7217 198.235 70.3562C198.562 69.9907 198.958 69.7003 199.42 69.485C199.888 69.2697 200.384 69.162 200.908 69.162C201.627 69.162 202.264 69.3448 202.818 69.7103C203.376 70.0708 203.802 70.5615 204.094 71.1823C204.386 71.8031 204.531 72.4991 204.531 73.2702C204.531 73.3953 204.527 73.498 204.517 73.578H197.971C198.036 74.5194 198.365 75.2704 198.959 75.8312C199.559 76.3869 200.261 76.6647 201.066 76.6647C202.103 76.6647 203.004 76.2567 203.769 75.4406L204.297 75.8988C203.855 76.3744 203.376 76.7399 202.863 76.9952C202.355 77.2506 201.745 77.3782 201.036 77.3782C200.523 77.3782 200.029 77.2781 199.556 77.0778C199.089 76.8775 198.678 76.6022 198.325 76.2517C197.973 75.8962 197.691 75.4607 197.48 74.945C197.274 74.4242 197.17 73.861 197.17 73.2551ZM197.971 72.9022H203.709C203.684 72.4966 203.605 72.1161 203.474 71.7606C203.343 71.4001 203.165 71.0772 202.939 70.7918C202.712 70.5014 202.42 70.2736 202.063 70.1083C201.711 69.9381 201.315 69.853 200.878 69.853C200.103 69.853 199.441 70.1434 198.892 70.7242C198.348 71.305 198.041 72.031 197.971 72.9022ZM206.736 77.1905V69.3498H207.499V74.3741L212.383 69.3498H213.388L209.938 72.8195L213.493 77.1905H212.534L209.416 73.3603L207.499 75.2829V77.1905H206.736ZM214.792 73.2702C214.792 72.5291 214.968 71.8457 215.32 71.2199C215.673 70.589 216.156 70.0883 216.77 69.7178C217.39 69.3473 218.069 69.162 218.808 69.162C220.036 69.162 221.083 69.6502 221.949 70.6265L221.421 71.1598C221.019 70.7492 220.613 70.4313 220.205 70.206C219.803 69.9807 219.332 69.868 218.794 69.868C218.22 69.868 217.689 70.0207 217.2 70.3261C216.712 70.6266 216.324 71.0396 216.038 71.5653C215.751 72.086 215.608 72.6543 215.608 73.2702C215.608 74.2164 215.922 75.0201 216.551 75.6809C217.18 76.3368 217.948 76.6647 218.854 76.6647C219.795 76.6647 220.668 76.2191 221.473 75.3279L222.025 75.8237C221.587 76.3193 221.111 76.7023 220.598 76.9727C220.09 77.2431 219.493 77.3782 218.808 77.3782C218.063 77.3782 217.381 77.1955 216.763 76.83C216.149 76.4595 215.665 75.9613 215.313 75.3355C214.966 74.7046 214.792 74.0161 214.792 73.2702Z" fill="white"/>
<path d="M106.825 60.5755C106.024 61.1593 105.051 61.5972 103.903 61.8892C102.783 62.2077 101.622 62.3669 100.422 62.3669C98.8208 62.3669 97.4602 62.1147 96.3396 61.6105C95.2457 61.1063 94.3519 60.4029 93.6583 59.5006C92.9646 58.5717 92.4576 57.457 92.1375 56.1566C91.844 54.8562 91.6973 53.4231 91.6973 51.8572C91.6973 48.4867 92.4576 45.8991 93.9784 44.0943C95.4992 42.2631 97.7136 41.3475 100.622 41.3475C102.089 41.3475 103.263 41.4669 104.144 41.7058C105.051 41.9446 105.864 42.2498 106.585 42.6214L105.344 46.8412C104.73 46.5492 104.117 46.3237 103.503 46.1644C102.916 46.0052 102.236 45.9256 101.462 45.9256C100.021 45.9256 98.9276 46.4033 98.1805 47.3587C97.4335 48.2876 97.06 49.7871 97.06 51.8572C97.06 52.7065 97.1533 53.4894 97.3401 54.2059C97.5269 54.9225 97.807 55.5462 98.1805 56.077C98.554 56.6078 99.0343 57.0324 99.6213 57.3509C100.235 57.6429 100.942 57.7888 101.742 57.7888C102.623 57.7888 103.37 57.6827 103.983 57.4703C104.597 57.2315 105.144 56.9528 105.624 56.6343L106.825 60.5755ZM122.017 52.733L122.217 49.9065H122.097L120.376 52.8126L113.253 61.8096H109.971V41.9048H115.174V51.3795L114.934 54.0865H115.094L116.735 51.26L123.938 41.9048H127.22V61.8096H122.017V52.733ZM146.186 46.4829H140.543V61.8096H135.181V46.4829H129.538V41.9048H146.186V46.4829ZM160.552 52.733L160.752 49.9065H160.632L158.911 52.8126L151.788 61.8096H148.506V41.9048H153.709V51.3795L153.469 54.0865H153.629L155.27 51.26L162.473 41.9048H165.755V61.8096H160.552V52.733ZM202.084 46.4829H195.761V61.8096H190.559V41.9048H207.287V61.8096H202.084V46.4829ZM211.738 43.0593C212.805 42.5816 214.072 42.21 215.54 41.9446C217.007 41.6526 218.542 41.5067 220.143 41.5067C221.53 41.5067 222.69 41.6792 223.624 42.0242C224.558 42.3427 225.292 42.8071 225.825 43.4176C226.386 44.028 226.772 44.7578 226.986 45.6071C227.226 46.4564 227.346 47.4118 227.346 48.4734C227.346 49.6412 227.306 50.8221 227.226 52.0164C227.146 53.1842 227.092 54.3387 227.066 55.4799C227.066 56.621 227.106 57.7357 227.186 58.8239C227.266 59.8854 227.466 60.8939 227.786 61.8494H223.544L222.704 59.1025H222.504C221.97 59.9252 221.223 60.6418 220.263 61.2522C219.329 61.8361 218.114 62.128 216.621 62.128C215.687 62.128 214.846 61.9953 214.1 61.7299C213.352 61.438 212.712 61.0399 212.179 60.5357C211.645 60.0048 211.231 59.3945 210.938 58.7044C210.644 57.9879 210.498 57.1917 210.498 56.3159C210.498 55.0951 210.764 54.0732 211.298 53.2505C211.858 52.4012 212.645 51.7245 213.659 51.2202C214.7 50.6894 215.927 50.3311 217.341 50.1454C218.782 49.933 220.383 49.8667 222.144 49.9463C222.33 48.4601 222.224 47.3985 221.823 46.7616C221.423 46.0981 220.529 45.7663 219.142 45.7663C218.102 45.7663 216.994 45.8725 215.82 46.0848C214.673 46.2972 213.726 46.5758 212.979 46.9208L211.738 43.0593ZM218.342 57.8684C219.382 57.8684 220.209 57.6429 220.823 57.1917C221.436 56.7139 221.89 56.2097 222.184 55.6789V53.0913C221.356 53.0117 220.556 52.9984 219.782 53.0515C219.035 53.1046 218.368 53.224 217.781 53.4098C217.194 53.5955 216.727 53.861 216.381 54.2059C216.033 54.5509 215.86 54.9888 215.86 55.5197C215.86 56.2627 216.073 56.8467 216.501 57.2713C216.954 57.6694 217.568 57.8684 218.342 57.8684ZM231.712 41.9048H235.514L236.114 44.2934H236.274C236.968 43.2848 237.781 42.5418 238.716 42.064C239.676 41.5863 240.837 41.3475 242.197 41.3475C244.705 41.3475 246.586 42.1437 247.84 43.736C249.094 45.3019 249.721 47.8364 249.721 51.3397C249.721 53.0382 249.521 54.5775 249.121 55.9576C248.721 57.3111 248.12 58.4656 247.32 59.421C246.546 60.3764 245.585 61.1063 244.438 61.6105C243.318 62.1147 242.024 62.3669 240.557 62.3669C239.73 62.3669 239.049 62.3006 238.516 62.1679C237.982 62.0617 237.449 61.8759 236.915 61.6105V69.7715H231.712V41.9048ZM240.637 45.7265C239.622 45.7265 238.822 45.9787 238.235 46.4829C237.675 46.9871 237.235 47.7435 236.915 48.752V57.0324C237.289 57.3244 237.689 57.5633 238.115 57.749C238.569 57.9082 239.156 57.9879 239.876 57.9879C241.371 57.9879 242.491 57.4703 243.238 56.4353C243.985 55.3737 244.358 53.6353 244.358 51.2202C244.358 49.4686 244.065 48.1151 243.478 47.1597C242.891 46.2042 241.944 45.7265 240.637 45.7265ZM259.928 53.569H258.527V61.8096H253.325V41.9048H258.527V50.3842L259.768 49.8269L264.45 41.9048H270.013L265.171 49.4686L263.13 50.9814L265.371 52.534L270.774 61.8096H264.811L259.928 53.569Z" fill="white"/>
<path d="M178.226 55.4762C180.235 55.4762 181.864 53.8559 181.864 51.8571C181.864 49.8584 180.235 48.2381 178.226 48.2381C176.217 48.2381 174.588 49.8584 174.588 51.8571C174.588 53.8559 176.217 55.4762 178.226 55.4762Z" fill="#F1C650"/>
</svg>
