<svg width="360" height="120" viewBox="0 0 360 120" fill="none" xmlns="http://www.w3.org/2000/svg">
<rect width="360" height="120" fill="#C71C36"/>
<!-- <rect width="360" height="120" stroke="white"/> -->
<path fill-rule="evenodd" clip-rule="evenodd" d="M137.542 34.6665L137.757 36.1915C130.903 50.0538 139.643 48.9253 139.643 48.9253L140.747 48.727L140.915 49.0625C157.153 47.2325 166.031 55.6353 166.031 55.6353C167.212 35.7493 137.542 34.6665 137.542 34.6665Z" fill="#F8B829"/>
<path d="M127.345 81.4993C126.655 86.0743 130.412 88.7278 131.01 87.2638C132.666 85.1136 133.249 85.7388 134.077 82.5058C134.379 82.1043 134.729 81.7408 135.119 81.4231C135.958 80.5589 136.765 79.6744 137.542 78.7696C139.834 76.1914 141.791 73.3378 143.369 70.2753C145.119 67.1831 145.758 63.5898 145.178 60.0883C144.551 58.317 143.657 56.651 142.526 55.1473C142.18 54.3601 142.023 53.5041 142.066 52.6463C142.027 51.3631 141.641 50.1141 140.946 49.0321C140.588 48.6475 140.315 48.192 140.146 47.6953C139.977 47.1985 139.915 46.6719 139.965 46.1498C140.164 44.9908 140.164 43.8471 140.333 42.6881C140.439 40.5223 140.04 38.3615 139.168 36.3746C139.168 36.3746 138.094 34.4836 137.143 34.9563C135.451 33.8905 133.484 33.3361 131.48 33.3604C129.477 33.3848 127.524 33.9869 125.858 35.0936C125.858 35.0936 103.901 49.0473 123.696 75.8568C123.098 79.3338 125.229 82.9176 126.885 85.2966" fill="#005D86"/>
<path d="M137.45 50.8926L134.476 37.4116C134.476 37.4116 132.728 32.2266 128.128 38.7688L127.361 37.7623C123.129 43.7251 117.394 50.8773 118.667 58.6243C118.852 60.0543 119.349 61.4268 120.122 62.6463C120.895 63.8658 121.927 64.9028 123.144 65.6851C124.939 66.9244 127.111 67.5033 129.288 67.3225C131.465 67.1416 133.511 66.2121 135.074 64.6938C137.466 62.7113 139.413 58.6853 137.45 50.8926Z" fill="white"/>
<path fill-rule="evenodd" clip-rule="evenodd" d="M140.915 49.1083C140.915 49.1083 155.114 46.9123 166.031 55.6811C166.031 55.6811 155.758 42.2763 139.382 44.7621C139.397 44.7621 138.217 48.0561 140.915 49.1083Z" fill="#F19320"/>
<path d="M166.031 55.681C166.32 52.222 165.44 48.766 163.532 45.86C163.379 45.6618 162.198 48.2238 162.183 48.4525C162.12 49.5211 162.382 50.5838 162.934 51.5025C163.716 52.936 165.617 54.1103 166.001 55.6505" fill="#E95253"/>
<path d="M112.533 75.0485C114.54 75.8081 116.73 75.9516 118.82 75.4603C121.749 75.8568 123.282 76.7718 126.778 77.1683C131.056 77.1683 135.303 76.7108 139.551 76.3143C140.931 76.1923 143.997 76.0245 145.163 77.1073C145.837 77.7325 145.638 79.4253 145.653 80.3098C143.119 79.3485 140.45 78.7827 137.741 78.6323C134.675 78.6323 131.501 78.7695 128.388 78.739C126.265 78.7452 124.146 78.5615 122.055 78.19C120.108 77.824 118.191 77.3208 116.244 76.9243C114.833 76.6193 113.116 76.3753 112.533 75.0485Z" fill="#9B5F48"/>
<path d="M139.873 77.7935C139.873 78.2815 139.443 79.3185 139.045 79.3185C138.646 79.3185 138.217 78.2968 138.217 77.7935V76.0703C138.217 75.5823 138.523 75.0943 138.922 75.0943C139.163 75.131 139.385 75.2471 139.552 75.4241C139.719 75.6011 139.821 75.8286 139.842 76.0703L139.873 77.7935Z" fill="#969595"/>
<path d="M138.217 78.0376C138.217 78.4188 137.91 79.2118 137.588 79.2118C137.266 79.2118 136.959 78.4188 136.959 78.0376V76.6803C136.959 76.2991 137.189 75.9178 137.511 75.9178C137.696 75.9463 137.864 76.0382 137.988 76.1775C138.111 76.3169 138.181 76.4948 138.186 76.6803L138.217 78.0376Z" fill="#838383"/>
<path d="M123.006 77.7935C123.006 78.2815 123.435 79.3185 123.834 79.3185C124.233 79.3185 124.662 78.2968 124.662 77.7935V76.0703C124.662 75.5823 124.355 75.0943 123.957 75.0943C123.716 75.131 123.494 75.2471 123.327 75.4241C123.16 75.6011 123.058 75.8286 123.037 76.0703L123.006 77.7935Z" fill="#969595"/>
<path d="M124.662 78.0376C124.662 78.4188 124.969 79.2118 125.291 79.2118C125.613 79.2118 125.919 78.4188 125.919 78.0376V76.6803C125.919 76.2991 125.689 75.9178 125.367 75.9178C125.183 75.9463 125.015 76.0382 124.891 76.1775C124.768 76.3169 124.698 76.4948 124.693 76.6803L124.662 78.0376Z" fill="#838383"/>
<path d="M140.578 44.457C140.946 43.5878 141.621 40.8885 139.75 36.2373C139.413 35.5205 138.569 33.8583 136.775 34.7123C136.515 35.1088 140.011 37.2895 139.29 44.9755C139.29 44.9755 138.385 48.1933 140.915 49.093C140.539 48.3018 140.345 47.4369 140.348 46.5615C140.295 45.8519 140.372 45.1386 140.578 44.457ZM140.409 44.762C140.409 44.762 140.409 44.762 140.425 44.762H140.409Z" fill="#003B55"/>
<path d="M137.542 41.6205C138.217 45.2195 136.407 47.263 132.819 47.3088C130.059 47.3088 126.042 46.7293 125.659 43.3743C125.337 40.4615 127.192 36.5118 130.167 35.6273C134.291 34.3768 136.898 38.0825 137.557 41.6205H137.542Z" fill="#F8B829"/>
<path d="M135.349 41.3613C135.491 41.7848 135.521 42.2374 135.436 42.6758C135.352 43.1141 135.155 43.5235 134.866 43.8648C134.577 44.2061 134.204 44.4678 133.784 44.6249C133.364 44.7819 132.911 44.8292 132.467 44.762C130.719 44.762 128.281 44.3503 128.127 42.2305C128.045 41.2664 128.273 40.3012 128.777 39.4737C129.281 38.6461 130.036 37.9989 130.933 37.625C133.402 36.9388 134.935 39.15 135.303 41.3003L135.349 41.3613Z" fill="#005D86"/>
<path fill-rule="evenodd" clip-rule="evenodd" d="M134 40.9038C134 41.4721 133.773 42.0171 133.369 42.4189C132.965 42.8207 132.417 43.0465 131.846 43.0465C131.274 43.0465 130.726 42.8207 130.322 42.4189C129.918 42.0171 129.691 41.4721 129.691 40.9038C129.691 40.3356 129.918 39.7906 130.322 39.3888C130.726 38.9869 131.274 38.7612 131.846 38.7612C132.417 38.7612 132.965 38.9869 133.369 39.3888C133.773 39.7906 134 40.3356 134 40.9038Z" fill="#151410"/>
<path fill-rule="evenodd" clip-rule="evenodd" d="M132.145 39.5466C132.145 39.9278 131.807 39.5466 131.807 39.5466C131.807 39.5466 132.145 39.1501 132.145 39.5466Z" fill="white"/>
<path fill-rule="evenodd" clip-rule="evenodd" d="M130.934 39.5313C130.719 39.5313 130.673 39.7601 130.642 40.0041C130.584 40.026 130.532 40.0605 130.49 40.105C130.447 40.1496 130.415 40.2031 130.396 40.2616C130.377 40.3202 130.371 40.3822 130.379 40.4432C130.387 40.5042 130.409 40.5626 130.443 40.6141C130.443 40.6141 131.486 39.6381 131.562 39.6991C131.475 39.6287 131.374 39.5774 131.266 39.5485C131.158 39.5196 131.044 39.5138 130.934 39.5313Z" fill="white"/>
<path d="M165.203 74.7132C165.324 74.7103 165.444 74.7334 165.555 74.7807C165.667 74.8281 165.766 74.8987 165.847 74.9877L167.657 76.9092C164.912 80.3862 159.653 81.1639 155.635 79.6847C153.638 78.8725 151.934 77.4807 150.744 75.6907C149.554 73.9008 148.934 71.7957 148.965 69.6502C148.8 67.4764 149.286 65.3027 150.361 63.403C151.436 61.5033 153.053 59.9626 155.007 58.9752C157.023 58.0417 159.272 57.7218 161.471 58.0555C163.67 58.3892 165.721 59.3617 167.365 60.8509L165.832 62.9249C165.004 64.1144 163.731 62.8029 162.873 62.3912C161.599 61.8071 160.178 61.6159 158.794 61.8422C157.373 62.1344 156.094 62.8964 155.164 64.004C154.234 65.1116 153.708 66.4996 153.673 67.9422C153.447 69.309 153.58 70.7107 154.058 72.0117C154.536 73.3127 155.343 74.469 156.402 75.3689C157.612 76.175 159.052 76.5691 160.506 76.4921C161.96 76.4152 163.35 75.8712 164.467 74.9419C164.68 74.7859 164.939 74.7053 165.203 74.7132Z" fill="white"/>
<path d="M173.867 57.6178V80.0963H169.65V57.6178H173.867Z" fill="white"/>
<path d="M181.626 64.5566V80.1116H177.455V64.5566H181.626Z" fill="white"/>
<path d="M182.131 60.0426C182.131 63.2909 176.949 63.3061 176.949 60.0426C176.949 56.7791 182.131 56.7791 182.131 60.0426Z" fill="white"/>
<path d="M196.545 68.0184C195.885 68.9029 195.18 68.3539 194.444 68.0184C193.537 67.509 192.475 67.3411 191.454 67.5457C189.338 68.0184 188.725 70.1687 188.663 72.1207C188.602 74.0727 189.016 76.2992 190.948 77.0769C191.44 77.264 191.965 77.351 192.492 77.3326C193.019 77.3143 193.537 77.191 194.015 76.9702C194.766 76.6194 195.839 75.2927 196.621 76.3144L197.817 77.8394C196.737 78.9778 195.35 79.7829 193.822 80.1587C192.294 80.5346 190.689 80.4653 189.2 79.9592C187.732 79.3719 186.483 78.3472 185.623 77.0257C184.764 75.7042 184.337 74.1507 184.401 72.5782C184.257 70.9728 184.624 69.3632 185.45 67.9761C186.275 66.589 187.517 65.4944 189.001 64.8464C190.46 64.2867 192.05 64.1544 193.583 64.4652C195.115 64.776 196.526 65.5169 197.649 66.6002L196.545 68.0184Z" fill="white"/>
<path d="M204.073 57.6178V70.3821H204.763C204.973 70.392 205.182 70.3481 205.37 70.2547C205.558 70.1612 205.719 70.0213 205.837 69.8483L209.287 65.2733C209.446 65.05 209.658 64.8691 209.904 64.7467C210.15 64.6243 210.422 64.5642 210.697 64.5718H214.515L210.053 70.2143C209.724 70.6637 209.307 71.0424 208.827 71.3276C209.278 71.6695 209.654 72.1004 209.931 72.5933L214.761 80.0811H211.004C210.726 80.1006 210.447 80.0442 210.198 79.9179C209.95 79.7916 209.741 79.6002 209.593 79.3643L206.067 73.6608C205.96 73.4635 205.797 73.3026 205.597 73.1992C205.397 73.0959 205.171 73.0548 204.947 73.0813H204.073V80.0963H199.933V57.6178H204.073Z" fill="white"/>
<path d="M220.618 57.6178V70.3821H221.308C221.518 70.392 221.727 70.3481 221.915 70.2547C222.103 70.1612 222.263 70.0213 222.381 69.8483L225.831 65.2733C225.99 65.05 226.202 64.8691 226.448 64.7467C226.694 64.6243 226.967 64.5642 227.242 64.5718H231.06L226.567 70.2448C226.238 70.6942 225.821 71.0729 225.341 71.3581C225.792 71.7 226.168 72.1309 226.445 72.6238L231.275 80.1116H227.533C227.255 80.1311 226.976 80.0747 226.728 79.9484C226.479 79.8221 226.27 79.6307 226.123 79.3948L222.611 73.6761C222.505 73.4787 222.341 73.3179 222.142 73.2145C221.942 73.1111 221.716 73.07 221.492 73.0966H220.618V80.1116H216.432V57.6178H220.618Z" fill="white"/>
<path d="M239.033 84.2749C238.926 84.5415 238.736 84.7669 238.49 84.9178C238.244 85.0688 237.957 85.1374 237.669 85.1136H234.602L237.515 78.8001L231.244 64.4956H234.909C235.157 64.4843 235.403 64.5502 235.611 64.6842C235.82 64.8181 235.982 65.0134 236.074 65.2429L239.049 72.7001C239.263 73.2898 239.447 73.8795 239.601 74.4691C239.785 73.8744 239.999 73.2796 240.229 72.6849L242.989 65.2581C243.082 65.0349 243.239 64.8443 243.441 64.711C243.644 64.5778 243.882 64.5081 244.124 64.5109H247.467L239.033 84.2749Z" fill="white"/>
</svg>
