<svg width="64" height="64" viewBox="0 0 64 64" fill="none" xmlns="http://www.w3.org/2000/svg">
<rect width="64" height="64" rx="18" fill="white"/>
<path fill-rule="evenodd" clip-rule="evenodd" d="M46.7479 34.1151V46.0055C46.7479 48.1322 45.0812 49.875 43.0436 49.875H20.9797C18.9421 49.875 17.2754 48.1322 17.2754 46.0055V34.1151H28.7333V39.2787L32.0117 41.433L35.29 39.2787V34.1151H46.7479Z" fill="url(#paint0_linear)"/>
<path fill-rule="evenodd" clip-rule="evenodd" d="M29.8813 34.1151V38.6584L32.0113 40.0578L34.1412 38.6584V34.1151H29.8813Z" fill="url(#paint1_linear)"/>
<path fill-rule="evenodd" clip-rule="evenodd" d="M18.3006 20.4106H45.7225C47.0167 20.4106 48.0744 21.5849 48.0744 23.0199V30.069C48.0744 31.5041 47.0167 32.6784 45.7225 32.6784H34.9659H29.0572H18.3006C17.0064 32.6784 15.9487 31.5041 15.9487 30.069V23.0199C15.9487 21.5849 17.0064 20.4106 18.3006 20.4106Z" fill="url(#paint2_linear)"/>
<path fill-rule="evenodd" clip-rule="evenodd" d="M26.3021 14.0936H37.7212C38.7821 14.0936 39.6503 14.9618 39.6503 16.0227V19.0322H37.2045V17.2537C37.2045 16.7743 36.8125 16.3807 36.3331 16.3807H27.6902C27.2108 16.3807 26.8188 16.7743 26.8188 17.2537V19.0322H24.373V16.0227C24.373 14.9618 25.2412 14.0936 26.3021 14.0936Z" fill="url(#paint3_linear)"/>
<defs>
<linearGradient id="paint0_linear" x1="32.0117" y1="34.1151" x2="32.0117" y2="49.875" gradientUnits="userSpaceOnUse">
<stop stop-color="#EF8080"/>
<stop offset="1" stop-color="#F0145A"/>
</linearGradient>
<linearGradient id="paint1_linear" x1="32.0113" y1="34.1151" x2="32.0113" y2="40.0578" gradientUnits="userSpaceOnUse">
<stop stop-color="#EF8080"/>
<stop offset="1" stop-color="#F0145A"/>
</linearGradient>
<linearGradient id="paint2_linear" x1="32.0116" y1="20.4106" x2="32.0116" y2="32.6784" gradientUnits="userSpaceOnUse">
<stop stop-color="#EF8080"/>
<stop offset="1" stop-color="#F0145A"/>
</linearGradient>
<linearGradient id="paint3_linear" x1="32.0117" y1="14.0936" x2="32.0117" y2="19.0322" gradientUnits="userSpaceOnUse">
<stop stop-color="#EF8080"/>
<stop offset="1" stop-color="#F0145A"/>
</linearGradient>
</defs>
</svg>
