<svg width="64" height="64" viewBox="0 0 64 64" fill="none" xmlns="http://www.w3.org/2000/svg">
<rect width="64" height="64" rx="18" fill="white"/>
<path d="M26.2497 29.3044C27.0177 29.3044 27.641 28.6811 27.641 27.9131V22.487C27.641 20.0613 29.6146 18.087 32.0403 18.087C34.4661 18.087 36.4403 20.0613 36.4403 22.487V27.9131C36.4403 28.6811 37.0629 29.3044 37.8316 29.3044C38.5996 29.3044 39.2229 28.6811 39.2229 27.9131V22.487C39.2236 18.5266 36.0014 15.3044 32.0403 15.3044C28.0807 15.3044 24.8584 18.5266 24.8584 22.487V27.9131C24.8584 28.6811 25.4817 29.3044 26.2497 29.3044Z" fill="url(#paint0_linear)"/>
<path d="M48.0003 26.1782H40.6152V27.9131C40.6152 29.4477 39.3672 30.6957 37.8326 30.6957C36.298 30.6957 35.05 29.4477 35.05 27.9131V26.1782H29.0333V27.9131C29.0333 29.4477 27.7853 30.6957 26.2507 30.6957C24.7161 30.6957 23.4681 29.4477 23.4681 27.9131V26.1782H16.0003C15.6163 26.1782 15.379 26.4808 15.4702 26.8536L20.3383 46.6776C20.6319 47.7921 21.8048 48.6957 22.9568 48.6957H41.0437C42.1971 48.6957 43.3686 47.7921 43.6636 46.6776L48.5303 26.8536C48.6215 26.4801 48.385 26.1782 48.0003 26.1782Z" fill="url(#paint1_linear)"/>
<path d="M29.635 33.6696C29.635 33.1315 30.0708 32.6957 30.6089 32.6957C31.147 32.6957 31.5828 33.1315 31.5828 33.6696V38.5044L31.5828 37.5652C31.5828 37.0272 32.0187 36.5913 32.5568 36.5913C33.0948 36.5913 33.5307 37.0272 33.5307 37.5652V38.7315C33.5394 38.2012 33.972 37.0783 34.5044 37.0783C35.0423 37.0783 35.4783 37.5143 35.4784 38.0522C35.4784 38.0522 35.507 38.7764 35.571 38.8197C35.7269 38.4894 36.0629 37.5652 36.4523 37.5652C36.9902 37.5652 37.4262 38.0013 37.4262 38.5392V43.4087C37.4262 44.4844 36.5541 45.3566 35.4784 45.3566H32.2226C31.1893 45.3566 30.1983 44.946 29.4679 44.2156L27.9306 42.6783L25.7393 41.6976C25.7428 40.7676 26.4715 40.487 27.2001 40.487C27.8278 40.487 28.3922 40.5849 29.6349 41.2174L29.635 33.6696Z" fill="white"/>
<defs>
<linearGradient id="paint0_linear" x1="32.0407" y1="15.3044" x2="32.0407" y2="29.3044" gradientUnits="userSpaceOnUse">
<stop stop-color="#EF8080"/>
<stop offset="1" stop-color="#F0145A"/>
</linearGradient>
<linearGradient id="paint1_linear" x1="32.0003" y1="26.1782" x2="32.0003" y2="48.6957" gradientUnits="userSpaceOnUse">
<stop stop-color="#EF8080"/>
<stop offset="1" stop-color="#F0145A"/>
</linearGradient>
</defs>
</svg>
