<svg width="64" height="64" viewBox="0 0 64 64" fill="none" xmlns="http://www.w3.org/2000/svg">
<rect width="64" height="64" rx="18" fill="white"/>
<path d="M40.4315 25.0069C41.002 25.5773 41.9262 25.5789 42.4967 25.0069L44.5291 22.9744C45.0988 22.404 45.0972 21.4797 44.5291 20.9085L39.399 15.7799C38.8301 15.2095 37.9058 15.2095 37.3354 15.7799L35.3022 17.8123C34.7333 18.3828 34.7333 19.307 35.3022 19.8759L40.4315 25.0069Z" fill="url(#paint0_linear)"/>
<path d="M28.2849 37.3806C28.8546 37.9487 29.7789 37.9487 30.3485 37.3806L32.3817 35.3466C32.9522 34.7777 32.9522 33.8527 32.3817 33.2823L27.2516 28.1521C26.6819 27.5832 25.7577 27.5817 25.1872 28.1521L23.1548 30.1845C22.5843 30.755 22.5859 31.6792 23.1548 32.2497L28.2849 37.3806Z" fill="url(#paint1_linear)"/>
<path d="M51.5725 37.8684L49.5097 35.8033C48.9377 35.2344 48.0158 35.2344 47.4461 35.8033L46.5413 36.7073L37.8093 27.9736L39.7006 26.0815L34.4536 20.836L32.5614 22.7281L30.1518 25.1362L28.3018 26.9863L33.548 32.2333L35.4004 30.384L44.131 39.1161L43.3143 39.9336C42.7438 40.5017 42.7422 41.4267 43.3143 41.9972L45.3771 44.0608C45.9491 44.6328 46.8726 44.6328 47.4422 44.0608L51.5717 39.9328C52.143 39.3616 52.143 38.4389 51.5725 37.8684Z" fill="url(#paint2_linear)"/>
<path d="M36.3204 44.1411C36.3204 43.2067 35.5629 42.4477 34.627 42.4477H21.4038C20.4686 42.4477 19.7104 43.2067 19.7104 44.1411V46.8897H15.9985V52.648H39.8125V46.8897H36.3204V44.1411Z" fill="url(#paint3_linear)"/>
<defs>
<linearGradient id="paint0_linear" x1="39.9156" y1="15.3521" x2="39.9156" y2="25.4353" gradientUnits="userSpaceOnUse">
<stop stop-color="#EF8080"/>
<stop offset="1" stop-color="#F0145A"/>
</linearGradient>
<linearGradient id="paint1_linear" x1="27.7686" y1="27.7249" x2="27.7686" y2="37.8067" gradientUnits="userSpaceOnUse">
<stop stop-color="#EF8080"/>
<stop offset="1" stop-color="#F0145A"/>
</linearGradient>
<linearGradient id="paint2_linear" x1="40.151" y1="20.836" x2="40.151" y2="44.4898" gradientUnits="userSpaceOnUse">
<stop stop-color="#EF8080"/>
<stop offset="1" stop-color="#F0145A"/>
</linearGradient>
<linearGradient id="paint3_linear" x1="27.9055" y1="42.4477" x2="27.9055" y2="52.648" gradientUnits="userSpaceOnUse">
<stop stop-color="#EF8080"/>
<stop offset="1" stop-color="#F0145A"/>
</linearGradient>
</defs>
</svg>
