<svg width="64" height="64" viewBox="0 0 64 64" fill="none" xmlns="http://www.w3.org/2000/svg">
<rect width="64" height="64" rx="18" fill="white"/>
<path d="M38.8789 48.5H25.8164V52.625H38.8789V48.5Z" fill="black"/>
<path d="M38.8789 48.5H25.8164V52.625H38.8789V48.5Z" fill="url(#paint0_linear)"/>
<path d="M20.4309 11.6859L11.1943 20.9225L13.625 23.3532L22.8616 14.1166L20.4309 11.6859Z" fill="black"/>
<path d="M20.4309 11.6859L11.1943 20.9225L13.625 23.3532L22.8616 14.1166L20.4309 11.6859Z" fill="url(#paint1_linear)"/>
<path d="M43.7651 11.5962L41.3345 14.0269L50.5711 23.2635L53.0017 20.8328L43.7651 11.5962Z" fill="black"/>
<path d="M43.7651 11.5962L41.3345 14.0269L50.5711 23.2635L53.0017 20.8328L43.7651 11.5962Z" fill="url(#paint2_linear)"/>
<path d="M40.6323 16.6733L38.782 16.5949C38.2485 16.5196 37.7047 16.5693 37.1937 16.7401C36.6827 16.9109 36.2183 17.1981 35.8373 17.5791L32.053 21.3634L28.0975 17.4079C27.754 17.0723 27.3255 16.8368 26.8582 16.7267C26.3908 16.6166 25.9023 16.636 25.4452 16.783C25.0139 16.9141 24.5552 16.9256 24.1179 16.8163C23.6807 16.7069 23.2813 16.4808 22.9626 16.1621L22.3756 15.575L15.0835 22.867L16.2715 24.055L16.1931 25.9053C16.1178 26.4388 16.1675 26.9825 16.3383 27.4935C16.5091 28.0046 16.7963 28.4689 17.1773 28.8499L23.7858 35.4585C23.8742 34.591 24.2898 33.7898 24.9482 33.218L22.8892 31.159L23.3753 30.6728L25.526 32.8235C25.8308 32.6499 26.1607 32.5246 26.5038 32.4518V29.9123L25.3198 28.7283L25.806 28.2421L26.5038 28.94V25.262C26.4962 24.654 26.7119 24.0644 27.1102 23.605C27.5084 23.1456 28.0615 22.8484 28.6643 22.7698C28.8917 22.7477 29.1211 22.7581 29.3455 22.8006L28.5002 21.9553L28.9864 21.4692L30.2212 22.704C30.44 22.2803 30.7783 21.9301 31.1942 21.6968C31.6102 21.4636 32.0854 21.3577 32.5611 21.3921C33.1351 21.4591 33.6675 21.7249 34.0661 22.1432C34.4648 22.5616 34.7045 23.1063 34.7437 23.6828C35.1345 23.4971 35.5675 23.4183 35.9986 23.4546C36.6112 23.5279 37.1747 23.8262 37.5799 24.2915C37.9851 24.7568 38.203 25.3561 38.1913 25.973V28.3268C38.817 28.4575 39.3939 28.7599 39.8573 29.2001C40.3207 29.6404 40.6523 30.201 40.8149 30.8192L42.732 28.9021L43.2181 29.3882L40.9389 31.6675C40.9389 31.6769 40.9413 31.6857 40.9413 31.6952V33.9777C41.559 33.9131 42.136 33.6394 42.5768 33.2019L47.2794 28.4993C47.615 28.1559 47.8505 27.7274 47.9606 27.26C48.0707 26.7927 48.0512 26.3041 47.9043 25.847C47.7731 25.4158 47.7616 24.957 47.871 24.5197C47.9804 24.0825 48.2065 23.6831 48.5252 23.3644L49.1123 22.7774L41.8203 15.4853L40.6323 16.6733Z" fill="black"/>
<path d="M40.6323 16.6733L38.782 16.5949C38.2485 16.5196 37.7047 16.5693 37.1937 16.7401C36.6827 16.9109 36.2183 17.1981 35.8373 17.5791L32.053 21.3634L28.0975 17.4079C27.754 17.0723 27.3255 16.8368 26.8582 16.7267C26.3908 16.6166 25.9023 16.636 25.4452 16.783C25.0139 16.9141 24.5552 16.9256 24.1179 16.8163C23.6807 16.7069 23.2813 16.4808 22.9626 16.1621L22.3756 15.575L15.0835 22.867L16.2715 24.055L16.1931 25.9053C16.1178 26.4388 16.1675 26.9825 16.3383 27.4935C16.5091 28.0046 16.7963 28.4689 17.1773 28.8499L23.7858 35.4585C23.8742 34.591 24.2898 33.7898 24.9482 33.218L22.8892 31.159L23.3753 30.6728L25.526 32.8235C25.8308 32.6499 26.1607 32.5246 26.5038 32.4518V29.9123L25.3198 28.7283L25.806 28.2421L26.5038 28.94V25.262C26.4962 24.654 26.7119 24.0644 27.1102 23.605C27.5084 23.1456 28.0615 22.8484 28.6643 22.7698C28.8917 22.7477 29.1211 22.7581 29.3455 22.8006L28.5002 21.9553L28.9864 21.4692L30.2212 22.704C30.44 22.2803 30.7783 21.9301 31.1942 21.6968C31.6102 21.4636 32.0854 21.3577 32.5611 21.3921C33.1351 21.4591 33.6675 21.7249 34.0661 22.1432C34.4648 22.5616 34.7045 23.1063 34.7437 23.6828C35.1345 23.4971 35.5675 23.4183 35.9986 23.4546C36.6112 23.5279 37.1747 23.8262 37.5799 24.2915C37.9851 24.7568 38.203 25.3561 38.1913 25.973V28.3268C38.817 28.4575 39.3939 28.7599 39.8573 29.2001C40.3207 29.6404 40.6523 30.201 40.8149 30.8192L42.732 28.9021L43.2181 29.3882L40.9389 31.6675C40.9389 31.6769 40.9413 31.6857 40.9413 31.6952V33.9777C41.559 33.9131 42.136 33.6394 42.5768 33.2019L47.2794 28.4993C47.615 28.1559 47.8505 27.7274 47.9606 27.26C48.0707 26.7927 48.0512 26.3041 47.9043 25.847C47.7731 25.4158 47.7616 24.957 47.871 24.5197C47.9804 24.0825 48.2065 23.6831 48.5252 23.3644L49.1123 22.7774L41.8203 15.4853L40.6323 16.6733Z" fill="url(#paint3_linear)"/>
<path d="M30.543 24.9115C30.4908 24.4649 30.2649 24.0568 29.9143 23.7752C29.5637 23.4937 29.1164 23.3614 28.669 23.4068C28.2351 23.4667 27.8383 23.684 27.554 24.0173C27.2698 24.3506 27.118 24.7768 27.1274 25.2147V33.0229C26.3981 33.0229 25.6986 33.3126 25.1829 33.8284C24.6672 34.3441 24.3774 35.0436 24.3774 35.7729V42.4234C24.383 42.9035 24.5195 43.373 24.7721 43.7814C25.0247 44.1897 25.3839 44.5214 25.811 44.7407C26.2087 44.9529 26.5412 45.2691 26.7731 45.6557C27.005 46.0422 27.1274 46.4845 27.1274 46.9352V47.7654H37.4399V46.0854L38.8037 44.8325C39.2342 44.5085 39.5836 44.0889 39.8241 43.6067C40.0647 43.1246 40.1899 42.5932 40.1899 42.0543V31.6479C40.1899 30.9186 39.9002 30.2191 39.3845 29.7034C38.8688 29.1876 38.1693 28.8979 37.4399 28.8979V25.9261C37.4516 25.4812 37.2982 25.0476 37.0093 24.709C36.7204 24.3704 36.3164 24.1507 35.8751 24.0922C35.442 24.0539 35.0106 24.1817 34.6682 24.4496C34.3258 24.7176 34.098 25.1057 34.031 25.5353H34.3462V36.1526H33.6587V25.5353H34.0024V23.8636C34.0141 23.4187 33.8607 22.9851 33.5718 22.6465C33.2829 22.3079 32.8789 22.0882 32.4376 22.0297C32.1999 22.0083 31.9603 22.0367 31.7342 22.1131C31.508 22.1894 31.3002 22.312 31.1241 22.473C30.9479 22.6341 30.8072 22.8301 30.7109 23.0485C30.6147 23.2669 30.565 23.503 30.5649 23.7416V24.9115H30.9087V35.5289H30.2212V24.9115H30.543ZM27.4019 38.9026H26.7144V33.4026H27.4019V38.9026ZM37.0962 29.1114H37.7837V36.2912H37.0962V29.1114Z" fill="black"/>
<path d="M30.543 24.9115C30.4908 24.4649 30.2649 24.0568 29.9143 23.7752C29.5637 23.4937 29.1164 23.3614 28.669 23.4068C28.2351 23.4667 27.8383 23.684 27.554 24.0173C27.2698 24.3506 27.118 24.7768 27.1274 25.2147V33.0229C26.3981 33.0229 25.6986 33.3126 25.1829 33.8284C24.6672 34.3441 24.3774 35.0436 24.3774 35.7729V42.4234C24.383 42.9035 24.5195 43.373 24.7721 43.7814C25.0247 44.1897 25.3839 44.5214 25.811 44.7407C26.2087 44.9529 26.5412 45.2691 26.7731 45.6557C27.005 46.0422 27.1274 46.4845 27.1274 46.9352V47.7654H37.4399V46.0854L38.8037 44.8325C39.2342 44.5085 39.5836 44.0889 39.8241 43.6067C40.0647 43.1246 40.1899 42.5932 40.1899 42.0543V31.6479C40.1899 30.9186 39.9002 30.2191 39.3845 29.7034C38.8688 29.1876 38.1693 28.8979 37.4399 28.8979V25.9261C37.4516 25.4812 37.2982 25.0476 37.0093 24.709C36.7204 24.3704 36.3164 24.1507 35.8751 24.0922C35.442 24.0539 35.0106 24.1817 34.6682 24.4496C34.3258 24.7176 34.098 25.1057 34.031 25.5353H34.3462V36.1526H33.6587V25.5353H34.0024V23.8636C34.0141 23.4187 33.8607 22.9851 33.5718 22.6465C33.2829 22.3079 32.8789 22.0882 32.4376 22.0297C32.1999 22.0083 31.9603 22.0367 31.7342 22.1131C31.508 22.1894 31.3002 22.312 31.1241 22.473C30.9479 22.6341 30.8072 22.8301 30.7109 23.0485C30.6147 23.2669 30.565 23.503 30.5649 23.7416V24.9115H30.9087V35.5289H30.2212V24.9115H30.543ZM27.4019 38.9026H26.7144V33.4026H27.4019V38.9026ZM37.0962 29.1114H37.7837V36.2912H37.0962V29.1114Z" fill="url(#paint4_linear)"/>
<defs>
<linearGradient id="paint0_linear" x1="32.3477" y1="48.5" x2="32.3477" y2="52.625" gradientUnits="userSpaceOnUse">
<stop stop-color="#EF8080"/>
<stop offset="1" stop-color="#F0145A"/>
</linearGradient>
<linearGradient id="paint1_linear" x1="15.8126" y1="16.3042" x2="18.2433" y2="18.7349" gradientUnits="userSpaceOnUse">
<stop stop-color="#EF8080"/>
<stop offset="1" stop-color="#F0145A"/>
</linearGradient>
<linearGradient id="paint2_linear" x1="42.5498" y1="12.8116" x2="51.7864" y2="22.0482" gradientUnits="userSpaceOnUse">
<stop stop-color="#EF8080"/>
<stop offset="1" stop-color="#F0145A"/>
</linearGradient>
<linearGradient id="paint3_linear" x1="32.0979" y1="15.4853" x2="32.0979" y2="35.4585" gradientUnits="userSpaceOnUse">
<stop stop-color="#EF8080"/>
<stop offset="1" stop-color="#F0145A"/>
</linearGradient>
<linearGradient id="paint4_linear" x1="32.2837" y1="22.0228" x2="32.2837" y2="47.7654" gradientUnits="userSpaceOnUse">
<stop stop-color="#EF8080"/>
<stop offset="1" stop-color="#F0145A"/>
</linearGradient>
</defs>
</svg>
