<svg width="64" height="64" viewBox="0 0 64 64" fill="none" xmlns="http://www.w3.org/2000/svg">
<rect width="64" height="64" rx="18" fill="white"/>
<path d="M38.3468 35.9164C39.9639 35.9164 41.5628 36.3209 42.9709 37.0861C43.2266 37.2239 43.4612 37.3881 43.7008 37.5462C46.0117 33.0226 47.2312 28.2382 47.2312 23.5708C47.2312 23.3085 47.2312 23.0377 47.2228 22.767C47.2059 22.3862 46.9351 22.0562 46.5543 21.9716C41.4436 20.8547 36.8151 18.0877 33.1766 13.9754L32.6351 13.3577C32.4743 13.1716 32.2459 13.0701 32.0005 13.0701C31.7381 13.0362 31.5351 13.1631 31.3743 13.3408L30.5451 14.2547C27.0928 18.0539 22.7435 20.677 17.9713 21.8447L17.4212 21.98C17.0489 22.0647 16.7866 22.3947 16.7782 22.7754C16.4736 34.6723 23.4966 43.227 26.5259 46.3577C27.346 47.1998 28.2604 48.0367 29.1299 48.7285C28.8037 47.7449 28.616 46.7099 28.616 45.6472C28.616 40.2815 32.981 35.9164 38.3468 35.9164Z" fill="url(#paint0_linear)"/>
<path d="M42.1627 38.5731C40.995 37.9385 39.675 37.6085 38.3466 37.6085C33.9127 37.6085 30.3081 41.2131 30.3081 45.647C30.3081 47.1447 30.7143 48.6085 31.4927 49.8608C32.9735 52.2554 35.5289 53.6854 38.3466 53.6854C42.772 53.6854 46.385 50.0808 46.385 45.647C46.385 42.6854 44.7689 39.9777 42.1627 38.5731ZM42.4635 44.5767L36.1764 49.4693L34.03 46.112C33.778 45.7183 33.8933 45.1952 34.287 44.9436C34.6812 44.6915 35.2046 44.8076 35.4554 45.2006L36.6019 46.9937L41.4239 43.2414C41.7921 42.9542 42.3242 43.0199 42.6114 43.3893C42.8985 43.7582 42.832 44.29 42.4635 44.5767Z" fill="url(#paint1_linear)"/>
<defs>
<linearGradient id="paint0_linear" x1="31.9999" y1="13.0646" x2="31.9999" y2="48.7285" gradientUnits="userSpaceOnUse">
<stop stop-color="#EF8080"/>
<stop offset="1" stop-color="#F0145A"/>
</linearGradient>
<linearGradient id="paint1_linear" x1="38.3466" y1="37.6085" x2="38.3466" y2="53.6854" gradientUnits="userSpaceOnUse">
<stop stop-color="#EF8080"/>
<stop offset="1" stop-color="#F0145A"/>
</linearGradient>
</defs>
</svg>
