<svg width="223" height="31" viewBox="0 0 223 31" fill="none" xmlns="http://www.w3.org/2000/svg">
<g clip-path="url(#clip0)">
<path d="M5.17563 28.5456C5.17563 27.9899 4.98495 27.5213 4.60903 27.1345C4.23312 26.7477 3.77549 26.557 3.24158 26.557C2.7567 26.557 2.3372 26.7096 1.98308 27.0201C1.63441 27.3252 1.41649 27.6957 1.33477 28.137H0.817205V26.6387H0V30.4524H0.817205V28.8997H1.33477C1.41649 29.3628 1.63441 29.755 1.98308 30.0656C2.33176 30.3761 2.75126 30.5341 3.24158 30.5341C3.77549 30.5341 4.23312 30.3434 4.60903 29.9566C4.98495 29.5752 5.17563 29.1013 5.17563 28.5456ZM4.35842 28.5456C4.35842 28.9051 4.24946 29.2048 4.03154 29.439C3.80817 29.6787 3.54667 29.7986 3.24158 29.7986C2.93649 29.7986 2.67498 29.6787 2.45706 29.439C2.23369 29.2048 2.12473 28.9051 2.12473 28.5456C2.12473 28.186 2.23369 27.8863 2.45706 27.6466C2.67498 27.4124 2.93649 27.2925 3.24158 27.2925C3.54667 27.2925 3.80817 27.4124 4.03154 27.6466C4.24946 27.8863 4.35842 28.186 4.35842 28.5456Z" fill="#46466E"/>
<path d="M6.47998 26.639V30.4526H7.29718V29.1995H8.08715C8.47941 29.1995 8.80629 29.0742 9.06235 28.8291C9.3184 28.5839 9.44916 28.2788 9.44916 27.9192C9.44916 27.5542 9.3184 27.2546 9.06235 27.004C8.80084 26.7588 8.47941 26.639 8.08715 26.639H6.47998ZM8.05991 27.3744C8.22335 27.3744 8.35955 27.4289 8.46851 27.5324C8.57747 27.636 8.63195 27.7667 8.63195 27.9192C8.63195 28.0718 8.57747 28.2025 8.46851 28.3061C8.35955 28.4096 8.22335 28.4641 8.05991 28.4641H7.29718V27.3744H8.05991Z" fill="#46466E"/>
<path d="M14.1311 30.4526V26.639H13.4229L11.5433 29.0633V26.639H10.7261V30.4526H11.4343L13.3139 28.0282V30.4526H14.1311Z" fill="#46466E"/>
<path d="M15.1621 29.7171V31.2425H15.9793V30.4526H18.2675V31.2425H19.0847V29.7171H18.6216V26.639H15.9793V27.8103C15.9793 28.0663 15.9575 28.3061 15.9139 28.5294C15.8704 28.7582 15.8213 28.938 15.7723 29.0742C15.7178 29.205 15.6579 29.3248 15.5871 29.4392C15.5162 29.5482 15.4726 29.619 15.4454 29.6517C15.4127 29.679 15.3964 29.7062 15.38 29.7171H15.1621ZM16.7965 27.8103V27.3744H17.8044V29.7171H16.1972L16.2626 29.6517C16.3007 29.6081 16.3498 29.5373 16.4097 29.4338C16.4696 29.3303 16.5241 29.2104 16.584 29.0742C16.644 28.938 16.693 28.7528 16.7311 28.5294C16.7747 28.3061 16.7965 28.0663 16.7965 27.8103Z" fill="#46466E"/>
<path d="M23.6555 30.4526V26.639H22.9473L21.0677 29.0633V26.639H20.2505V30.4526H20.9587L22.8383 28.0282V30.4526H23.6555Z" fill="#46466E"/>
<path d="M25.9407 26.639H25.1235V27.8103C25.1235 28.2679 25.2434 28.622 25.4831 28.8727C25.7283 29.1287 26.0606 29.254 26.4855 29.254C26.8506 29.254 27.1502 29.1832 27.3845 29.0361V30.4526H28.2017V26.639H27.3845V28.2461L27.2919 28.317C27.2319 28.3605 27.1393 28.4041 27.014 28.4532C26.8887 28.4967 26.7579 28.5185 26.6217 28.5185C26.4038 28.5185 26.2349 28.4586 26.1151 28.3387C26.0007 28.2134 25.9407 28.0391 25.9407 27.8103V26.639Z" fill="#46466E"/>
<path d="M32.9929 26.639H32.1757V28.1644H30.5413V26.639H29.7241V30.4526H30.5413V28.8999H32.1757V30.4526H32.9929V26.639Z" fill="#46466E"/>
<path d="M36.4772 28.8454H35.551L36.0141 27.5924L36.4772 28.8454ZM36.7496 29.5537L37.0765 30.4526H37.9482L36.45 26.639H35.5783L34.0801 30.4526H34.9518L35.2786 29.5537H36.7496Z" fill="#46466E"/>
<path d="M41.5111 26.639H40.6938V30.4526H41.5111V29.363L42.0014 28.8182L43.1182 30.4526H44.0716L42.5462 28.2189L43.9627 26.639H43.0093L41.5111 28.3006V26.639Z" fill="#46466E"/>
<path d="M45.7307 28.5456C45.7307 28.1969 45.8505 27.8972 46.0902 27.6575C46.3245 27.4124 46.6133 27.2925 46.9565 27.2925C47.2997 27.2925 47.5885 27.4124 47.8227 27.6575C48.0624 27.8972 48.1823 28.1969 48.1823 28.5456C48.1823 28.8997 48.0624 29.1939 47.8227 29.4336C47.5885 29.6788 47.2997 29.7986 46.9565 29.7986C46.6133 29.7986 46.3245 29.6788 46.0902 29.4336C45.8505 29.1939 45.7307 28.8997 45.7307 28.5456ZM44.8862 28.5456C44.8862 29.0904 45.0878 29.5643 45.4855 29.9512C45.8832 30.338 46.3735 30.5341 46.9565 30.5341C47.5394 30.5341 48.0297 30.338 48.4275 29.9512C48.8252 29.5643 49.0267 29.0904 49.0267 28.5456C49.0267 27.9953 48.8252 27.5268 48.4275 27.14C48.0297 26.7532 47.5394 26.557 46.9565 26.557C46.3735 26.557 45.8832 26.7532 45.4855 27.14C45.0878 27.5268 44.8862 27.9953 44.8862 28.5456Z" fill="#46466E"/>
<path d="M52.3741 28.3006L51.0665 26.639H50.3311V30.4526H51.1483V27.9192L52.3741 29.4719L53.5999 27.9084V30.4526H54.4171V26.639H53.6925L52.3741 28.3006Z" fill="#46466E"/>
<path d="M59.1796 26.639H55.938V30.4526H56.7552V27.3744H58.3624V30.4526H59.1796V26.639Z" fill="#46466E"/>
<path d="M62.6647 28.8454H61.7385L62.2016 27.5924L62.6647 28.8454ZM62.9371 29.5537L63.264 30.4526H64.1357L62.6375 26.639H61.7658L60.2676 30.4526H61.1393L61.4661 29.5537H62.9371Z" fill="#46466E"/>
<path d="M68.4915 26.639H67.6743V28.1644H66.0399V26.639H65.2227V30.4526H66.0399V28.8999H67.6743V30.4526H68.4915V26.639Z" fill="#46466E"/>
<path d="M70.8309 26.639H70.0137V30.4526H70.8309V26.639Z" fill="#46466E"/>
<path d="M75.1863 26.639H73.4974C73.1161 26.639 72.8055 26.7588 72.5604 26.9985C72.3152 27.2382 72.1899 27.5379 72.1899 27.892C72.1899 28.0446 72.2172 28.1862 72.2607 28.3224C72.3098 28.4586 72.3642 28.5621 72.4296 28.6384C72.4896 28.7147 72.5549 28.7855 72.6367 28.8509C72.7129 28.9162 72.7674 28.9598 72.8001 28.9762C72.8273 28.9871 72.8546 29.0034 72.8709 29.0089L72.0537 30.4526H72.9254L73.6609 29.1178H74.3691V30.4526H75.1863V26.639ZM73.0071 27.892C73.0071 27.7395 73.0561 27.6196 73.1542 27.5215C73.2523 27.4235 73.3776 27.3744 73.5247 27.3744H74.3691V28.3823H73.5247C73.3776 28.3823 73.2523 28.3333 73.1542 28.2407C73.0561 28.1481 73.0071 28.0282 73.0071 27.892Z" fill="#46466E"/>
<path d="M2.49057 7.62939e-05H0V17.9875H2.49057V11.3144C2.49057 10.1854 2.77137 9.29485 3.33296 8.66767C3.89456 8.04049 4.66371 7.71436 5.61598 7.71436C6.43396 7.71436 7.11765 8.01541 7.66704 8.59241C8.21643 9.18196 8.49722 9.92203 8.49722 10.8126V18.0001H11V10.8126C11 9.15687 10.5483 7.85234 9.64484 6.87394C8.7414 5.89555 7.55716 5.40635 6.11654 5.40635C5.70144 5.40635 5.28635 5.45652 4.88346 5.56941C4.46837 5.68231 4.13873 5.80774 3.87014 5.94572C3.60155 6.0837 3.34517 6.23422 3.11321 6.40983C2.88124 6.58544 2.72253 6.71088 2.64928 6.78614C2.57603 6.8614 2.51498 6.91157 2.49057 6.9492V7.62939e-05Z" fill="#F0145A"/>
<path d="M16.5675 0H14V17.9725H16.5675V0Z" fill="#323264"/>
<path d="M31.7113 12.7089L31.8396 11.4252C31.8396 9.70496 31.2748 8.26716 30.1194 7.11178C28.964 5.95641 27.5262 5.39156 25.806 5.39156C24.0858 5.39156 22.5966 6.00776 21.3642 7.24016C20.1318 8.47256 19.5156 9.93604 19.5156 11.6819C19.5156 13.4792 20.1575 15.0197 21.4156 16.3034C22.6737 17.5872 24.1885 18.2291 25.9344 18.2291C26.6019 18.2291 27.2181 18.1264 27.8343 17.9466C28.4505 17.7412 28.964 17.5358 29.3235 17.3304C29.7086 17.0994 30.0937 16.8426 30.4275 16.5602C30.7613 16.2778 30.9924 16.0724 31.0951 15.944C31.1978 15.8156 31.2748 15.7386 31.3261 15.6616L29.6573 13.9927L29.2721 14.4805C29.0154 14.7886 28.5789 15.0967 27.9627 15.4305C27.3208 15.7643 26.6533 15.9183 25.9344 15.9183C24.9331 15.9183 24.0858 15.6102 23.3669 14.9683C22.648 14.3265 22.2115 13.5819 22.0831 12.7089H31.7113ZM25.806 7.57393C26.756 7.57393 27.5262 7.85636 28.1681 8.39553C28.7843 8.96038 29.1694 9.65361 29.3235 10.5266H22.1858C22.4169 9.65361 22.8277 8.96038 23.4696 8.39553C24.0858 7.85636 24.8817 7.57393 25.806 7.57393Z" fill="#323264"/>
<path d="M43.6858 17.2277C43.6858 18.3574 43.352 19.2817 42.6588 20.0006C41.9912 20.6939 41.144 21.0533 40.0913 21.0533C39.6291 21.0533 39.167 20.9763 38.7305 20.8479C38.294 20.7195 37.9603 20.5655 37.6778 20.3858C37.3954 20.206 37.1387 20.0263 36.8819 19.7952C36.6508 19.5642 36.4968 19.4101 36.4198 19.3331C36.3427 19.2561 36.2914 19.179 36.24 19.1277L34.5712 20.7966L34.7766 21.0533C34.9049 21.233 35.136 21.4641 35.4441 21.7209C35.7522 21.9519 36.1117 22.2087 36.5225 22.4654C36.9333 22.6965 37.4468 22.9019 38.0886 23.0816C38.7305 23.2614 39.3981 23.3641 40.0913 23.3641C41.8372 23.3641 43.275 22.7735 44.4817 21.5925C45.6628 20.3858 46.2533 18.948 46.2533 17.2021V5.64831H43.6858V6.93206L43.2493 6.54693C42.9669 6.29018 42.5304 6.03343 41.9142 5.77668C41.298 5.51993 40.6305 5.39156 39.9629 5.39156C38.3967 5.39156 37.0616 5.98208 35.9063 7.18881C34.7509 8.39553 34.186 9.83333 34.186 11.5536C34.186 13.2738 34.7509 14.7116 35.9063 15.9183C37.0616 17.125 38.3967 17.7156 39.9629 17.7156C40.3994 17.7156 40.8102 17.6642 41.2467 17.5615C41.6575 17.4331 41.9912 17.3048 42.2737 17.1764C42.5561 17.048 42.8128 16.894 43.0439 16.7142C43.275 16.5345 43.4547 16.4061 43.5061 16.3548L43.6858 16.1751V17.2277ZM36.7535 11.5536C36.7535 10.4752 37.0873 9.57658 37.7805 8.83201C38.4738 8.08743 39.2954 7.70231 40.2197 7.70231C41.144 7.70231 41.9656 8.08743 42.6588 8.83201C43.3263 9.57658 43.6858 10.4752 43.6858 11.5536C43.6858 12.6319 43.3263 13.5305 42.6588 14.2751C41.9656 15.0197 41.144 15.4048 40.2197 15.4048C39.2954 15.4048 38.4738 15.0197 37.7805 14.2751C37.0873 13.5305 36.7535 12.6319 36.7535 11.5536Z" fill="#323264"/>
<path d="M59.6542 17.9723V10.0131C59.6542 8.70363 59.1663 7.59961 58.2164 6.72666C57.2664 5.82803 56.034 5.39156 54.5192 5.39156C53.9286 5.39156 53.3381 5.46858 52.7733 5.62263C52.2084 5.80236 51.7463 5.98208 51.4125 6.18748C51.0787 6.39288 50.7449 6.62396 50.4368 6.90638C50.1287 7.16313 49.949 7.34286 49.8463 7.44556C49.7693 7.54826 49.6922 7.62528 49.6409 7.70231L51.3098 9.37118L51.6436 8.93471C51.849 8.65228 52.2084 8.39553 52.7476 8.11311C53.2868 7.83068 53.8773 7.70231 54.5192 7.70231C55.2637 7.70231 55.8799 7.93338 56.3678 8.36986C56.8556 8.80633 57.0867 9.37119 57.0867 10.0131L52.5935 10.7833C51.4895 10.963 50.5909 11.3995 49.9747 12.0927C49.3328 12.786 48.999 13.6332 48.999 14.6346C48.999 15.5845 49.4098 16.4061 50.2314 17.125C51.0787 17.8696 52.1057 18.2291 53.3638 18.2291C53.8003 18.2291 54.2111 18.1777 54.6219 18.0493C55.0583 17.9466 55.3921 17.8183 55.6745 17.6899C55.957 17.5615 56.2137 17.4075 56.4448 17.2277C56.6759 17.048 56.8299 16.9196 56.9326 16.8683C57.0096 16.7913 57.061 16.7142 57.0867 16.6886V17.9723H59.6542ZM53.7489 15.9183C53.0814 15.9183 52.5422 15.7643 52.1571 15.4562C51.7463 15.1481 51.5665 14.7886 51.5665 14.3778C51.5665 13.9413 51.6949 13.5562 51.9773 13.2738C52.2598 12.9914 52.6449 12.786 53.107 12.7089L57.0867 12.0671V12.3238C57.0867 13.4792 56.8042 14.3521 56.2137 14.994C55.6232 15.6102 54.8016 15.9183 53.7489 15.9183Z" fill="#323264"/>
<path d="M65.32 -7.62939e-06H62.7524V17.9725H65.32V-7.62939e-06Z" fill="#323264"/>
<path d="M76.9946 7.06043L76.8406 6.88071C76.7379 6.77801 76.5838 6.64963 76.3527 6.46991C76.1217 6.29018 75.8649 6.13613 75.5825 5.95641C75.3001 5.80236 74.9149 5.67398 74.4528 5.54561C73.9906 5.44291 73.5028 5.39156 73.015 5.39156C71.7569 5.39156 70.7299 5.75101 69.9083 6.46991C69.061 7.21448 68.6502 8.03608 68.6502 8.98606C68.6502 9.67929 68.8043 10.2441 69.1124 10.7576C69.4205 11.2455 69.8056 11.6049 70.2934 11.8103C70.7556 12.0414 71.2691 12.2725 71.8083 12.4522C72.3474 12.6319 72.8353 12.786 73.3231 12.9143C73.7852 13.0684 74.1704 13.2481 74.4785 13.4792C74.7866 13.7103 74.9406 14.0184 74.9406 14.3778C74.9406 14.84 74.7609 15.2251 74.4271 15.5075C74.0933 15.7643 73.5798 15.9183 72.8866 15.9183C72.3218 15.9183 71.7569 15.7643 71.2177 15.5075C70.6785 15.2251 70.3448 14.994 70.165 14.8143C70.011 14.6346 69.8826 14.4805 69.8056 14.3778L68.1367 16.0467L68.3164 16.2778C68.4448 16.4318 68.6245 16.6115 68.8813 16.8169C69.1637 17.048 69.4718 17.2534 69.8056 17.4588C70.165 17.6642 70.6272 17.8439 71.1664 17.998C71.7056 18.152 72.2961 18.2291 72.8866 18.2291C74.2474 18.2291 75.3771 17.8439 76.2244 17.0994C77.0716 16.3548 77.5081 15.4305 77.5081 14.3778C77.5081 13.6846 77.3541 13.0941 77.046 12.6319C76.7379 12.1441 76.3527 11.7846 75.8649 11.5536C75.4028 11.2968 74.8893 11.0914 74.3501 10.9117C73.8109 10.732 73.3231 10.5522 72.8353 10.4495C72.3731 10.3212 71.988 10.1158 71.6799 9.88469C71.3718 9.65361 71.2177 9.34551 71.2177 8.98606C71.2177 8.65228 71.3718 8.34418 71.7056 8.08743C72.0137 7.83068 72.4501 7.70231 73.015 7.70231C73.4258 7.70231 73.8366 7.80501 74.2217 7.98473C74.6325 8.16446 74.9149 8.31851 75.0433 8.44688C75.1717 8.57526 75.2744 8.67796 75.3257 8.72931L76.9946 7.06043Z" fill="#323264"/>
<path d="M97.9785 18H99.3145V8.88037H91.4287V18H92.7554V10.1328H97.9785V18ZM104.352 19.3267C104.009 20.2822 103.434 20.7554 102.626 20.7554C102.311 20.7554 101.996 20.6904 101.68 20.5605V21.8037L101.81 21.8408C101.903 21.8779 102.051 21.915 102.237 21.9429C102.422 21.98 102.617 21.9893 102.821 21.9893C103.48 21.9893 104.027 21.7944 104.463 21.3862C104.89 20.978 105.298 20.2915 105.679 19.3267L109.863 8.88037H108.434L105.493 16.293L102.543 8.88037H101.114L104.825 18L104.352 19.3267ZM120.309 13.6304C120.309 12.3687 119.882 11.2925 119.029 10.4019C118.175 9.51123 117.146 9.06592 115.939 9.06592C115.531 9.06592 115.142 9.14014 114.771 9.27002C114.399 9.3999 114.093 9.54834 113.861 9.70605C113.62 9.87305 113.407 10.0493 113.212 10.2534C113.017 10.4575 112.887 10.5967 112.832 10.6802C112.776 10.7637 112.729 10.8286 112.711 10.875C112.757 9.59473 113.091 8.5835 113.704 7.84131C114.316 7.09912 115.132 6.6167 116.134 6.4126C118.027 6.0415 119.233 5.62402 119.743 5.17871L119.075 4.13037L118.797 4.29736C118.611 4.41797 118.259 4.56641 117.739 4.74268C117.21 4.92822 116.607 5.06738 115.939 5.17871C112.841 5.73535 111.292 8.11035 111.292 12.3037C111.292 14.1777 111.709 15.6343 112.562 16.6548C113.407 17.6753 114.501 18.1855 115.847 18.1855C117.09 18.1855 118.138 17.7495 119.01 16.8682C119.873 15.9961 120.309 14.9106 120.309 13.6304ZM112.711 13.6304C112.711 12.6934 113.017 11.9048 113.629 11.2646C114.242 10.6338 114.984 10.3091 115.847 10.3091C116.7 10.3091 117.442 10.6338 118.055 11.2646C118.667 11.9048 118.982 12.6934 118.982 13.6304C118.982 14.5767 118.667 15.3652 118.055 15.9961C117.442 16.6362 116.7 16.9517 115.847 16.9517C114.984 16.9517 114.242 16.6362 113.629 15.9961C113.017 15.3652 112.711 14.5767 112.711 13.6304ZM123.732 8.88037V11.543C123.732 13.0366 123.649 14.187 123.5 14.9941C123.352 15.792 123.167 16.3115 122.944 16.5342C122.721 16.7568 122.415 16.8682 122.025 16.8682C121.766 16.8682 121.515 16.8032 121.265 16.6826V18.0093L121.395 18.0464C121.469 18.0835 121.58 18.1113 121.738 18.1484C121.896 18.1763 122.053 18.1948 122.211 18.1948C122.666 18.1948 123.055 18.1021 123.38 17.9165C123.695 17.731 123.992 17.4062 124.261 16.9424C124.521 16.4785 124.725 15.792 124.855 14.9014C124.985 14.0107 125.059 12.8882 125.059 11.5522V10.1235H129.048V18.0093H130.384V8.88965L123.732 8.88037ZM133.418 18H134.745V8.88037H133.418V18ZM133.223 5.8374C133.223 6.07861 133.297 6.28271 133.464 6.44971C133.631 6.6167 133.835 6.69092 134.077 6.69092C134.318 6.69092 134.513 6.6167 134.68 6.44971C134.847 6.28271 134.93 6.07861 134.93 5.8374C134.93 5.59619 134.847 5.40137 134.68 5.23438C134.513 5.06738 134.318 4.98389 134.077 4.98389C133.835 4.98389 133.631 5.06738 133.464 5.23438C133.297 5.40137 133.223 5.59619 133.223 5.8374ZM139.124 15.4395L140.933 13.5376L144.161 18H145.683L141.786 12.582L145.302 8.88037H143.679L139.124 13.7231V8.88037H137.797V18H139.124V15.4395ZM149.384 12.7769C148.521 12.9253 147.863 13.2314 147.408 13.6953C146.944 14.1592 146.722 14.7715 146.722 15.5322C146.722 16.228 147.028 16.8403 147.649 17.3784C148.271 17.9165 149.041 18.1855 149.95 18.1855C150.312 18.1855 150.665 18.1392 151.008 18.0371C151.351 17.9443 151.629 17.833 151.843 17.7031C152.047 17.5732 152.242 17.4341 152.427 17.2671C152.613 17.1001 152.724 16.9888 152.78 16.9238C152.835 16.8589 152.873 16.8032 152.9 16.7661V18H154.227V12.2017C154.227 11.209 153.884 10.374 153.197 9.69678C152.511 9.02881 151.657 8.68555 150.618 8.68555C150.21 8.68555 149.802 8.75049 149.412 8.87109C149.022 8.9917 148.707 9.13086 148.466 9.2793C148.225 9.43701 147.993 9.61328 147.77 9.80811C147.547 10.0029 147.408 10.1421 147.343 10.2163C147.278 10.2905 147.232 10.3555 147.195 10.4019L148.048 11.2554L148.336 10.9307C148.521 10.708 148.828 10.4854 149.254 10.2627C149.681 10.04 150.136 9.92871 150.618 9.92871C151.286 9.92871 151.833 10.1421 152.26 10.5596C152.687 10.9863 152.9 11.5337 152.9 12.2017L149.384 12.7769ZM149.95 16.9517C149.356 16.9517 148.883 16.8218 148.549 16.5527C148.215 16.2837 148.048 15.9404 148.048 15.5322C148.048 14.6787 148.624 14.1406 149.765 13.918L152.9 13.3428V13.918C152.9 14.8179 152.622 15.5508 152.065 16.1074C151.509 16.6733 150.804 16.9517 149.95 16.9517ZM157.261 18H165.044V20.2822H166.38V16.7661H164.952V8.88037H163.625V16.7661H158.587V8.88037H157.261V18ZM168.468 18H169.794V8.88037H168.468V18ZM168.273 5.8374C168.273 6.07861 168.347 6.28271 168.514 6.44971C168.681 6.6167 168.885 6.69092 169.126 6.69092C169.368 6.69092 169.562 6.6167 169.729 6.44971C169.896 6.28271 169.98 6.07861 169.98 5.8374C169.98 5.59619 169.896 5.40137 169.729 5.23438C169.562 5.06738 169.368 4.98389 169.126 4.98389C168.885 4.98389 168.681 5.06738 168.514 5.23438C168.347 5.40137 168.273 5.59619 168.273 5.8374ZM170.852 5.99512C170.852 6.23633 170.926 6.44043 171.093 6.60742C171.26 6.77441 171.464 6.84863 171.706 6.84863C171.947 6.84863 172.142 6.77441 172.309 6.60742C172.476 6.44043 172.559 6.23633 172.559 5.99512C172.559 5.75391 172.476 5.55908 172.309 5.39209C172.142 5.2251 171.947 5.1416 171.706 5.1416C171.464 5.1416 171.26 5.2251 171.093 5.39209C170.926 5.55908 170.852 5.75391 170.852 5.99512ZM174.461 5.99512C174.461 6.23633 174.535 6.44043 174.702 6.60742C174.869 6.77441 175.073 6.84863 175.314 6.84863C175.556 6.84863 175.75 6.77441 175.917 6.60742C176.084 6.44043 176.168 6.23633 176.168 5.99512C176.168 5.75391 176.084 5.55908 175.917 5.39209C175.75 5.2251 175.556 5.1416 175.314 5.1416C175.073 5.1416 174.869 5.2251 174.702 5.39209C174.535 5.55908 174.461 5.75391 174.461 5.99512ZM172.847 18H174.173V8.88037H172.847V18Z" fill="#323264"/>
<path fill-rule="evenodd" clip-rule="evenodd" d="M191.998 13.3508H185.888L188.58 5.18491L191.626 5.20286L189.858 10.5882L192.894 10.59L191.998 13.3508Z" fill="url(#paint0_linear)"/>
<path fill-rule="evenodd" clip-rule="evenodd" d="M179.524 23.9512H176.5C176.5 23.9512 182.008 7.04374 183.295 3.0969C183.896 1.25027 185.622 0 187.568 0H192.975C194.605 0 195.966 0.686832 196.812 1.84746C197.657 3.00814 197.897 4.49328 197.404 6.00835C196.911 7.52343 196.444 8.95362 196.017 10.264C195.441 12.0334 193.844 13.2526 191.998 13.3517C191.998 13.3517 191.989 13.3486 194.575 5.40888C194.804 4.70822 194.72 4.0224 194.362 3.53053C194.003 3.03872 193.399 2.74765 192.599 2.74765H187.96C187.049 2.74765 186.242 3.33271 185.96 4.19687L179.524 23.9512Z" fill="#F0145A"/>
<path fill-rule="evenodd" clip-rule="evenodd" d="M87.4489 0H90.5L82.5511 24H79.5L87.4489 0Z" fill="#F0145A"/>
</g>
<defs>
<linearGradient id="paint0_linear" x1="185.888" y1="11.7867" x2="192.677" y2="15.3447" gradientUnits="userSpaceOnUse">
<stop stop-color="#F0145A"/>
<stop offset="1" stop-color="#693264"/>
</linearGradient>
<clipPath id="clip0">
<rect width="222.5" height="31" fill="white"/>
</clipPath>
</defs>
</svg>
