<svg width="360" height="120" viewBox="0 0 360 120" fill="none" xmlns="http://www.w3.org/2000/svg">
<rect width="360" height="120" fill="#FD9339"/>
<!-- <rect width="360" height="120" stroke="white"/> -->
<g clip-path="url(#clip0)">
<path d="M137.106 60C137.106 55.0441 135.429 50.2333 132.346 46.3472C129.263 42.461 124.955 39.7272 120.12 38.5885C115.285 37.4499 110.206 37.9732 105.707 40.0736C101.207 42.1741 97.55 45.7286 95.3282 50.1613C93.1065 54.594 92.4502 59.6453 93.4656 64.4966C94.481 69.3479 97.1086 73.7151 100.923 76.8906C104.737 80.0661 109.514 81.8638 114.48 81.9926C119.447 82.1214 124.311 80.5736 128.285 77.6H114.495C111.05 77.5068 107.708 76.4091 104.881 74.4425C102.054 72.4759 99.8668 69.7265 98.5888 66.5338C97.3107 63.3411 96.9979 59.8449 97.689 56.4769C98.3801 53.1088 100.045 50.0165 102.478 47.5816C104.911 45.1467 108.005 43.476 111.379 42.7756C114.753 42.0752 118.259 42.3759 121.463 43.6406C124.668 44.9052 127.431 47.0784 129.411 49.8918C131.392 52.7053 132.503 56.0357 132.608 59.472V73.2C135.525 69.4153 137.107 64.7745 137.106 60Z" fill="white"/>
<path d="M126.065 70.9854V61.7454H119.214C118.795 62.7115 118.065 63.5108 117.14 64.017C116.214 64.5232 115.146 64.7075 114.104 64.5409C113.062 64.3743 112.106 63.8662 111.385 63.0968C110.665 62.3274 110.222 61.3406 110.127 60.2922C110.031 59.2438 110.288 58.1935 110.858 57.3072C111.427 56.4208 112.276 55.7489 113.271 55.3976C114.266 55.0462 115.35 55.0355 116.351 55.3669C117.353 55.6984 118.215 56.3533 118.802 57.2281H125.727C125.239 55.227 124.203 53.4005 122.736 51.9522C121.268 50.5039 119.426 49.4909 117.415 49.0259C115.403 48.561 113.302 48.6624 111.346 49.319C109.389 49.9756 107.654 51.1615 106.333 52.7445C105.012 54.3274 104.158 56.2452 103.866 58.284C103.574 60.3227 103.856 62.4023 104.679 64.2908C105.503 66.1793 106.836 67.8025 108.53 68.9794C110.224 70.1563 112.213 70.8407 114.274 70.9561L126.065 70.9854Z" fill="white"/>
<path d="M152.397 53.796C150.897 53.7989 149.432 54.2453 148.186 55.0786C146.94 55.912 145.97 57.0949 145.398 58.478C144.827 59.8612 144.678 61.3824 144.973 62.8495C145.267 64.3165 145.991 65.6637 147.052 66.7206C148.114 67.7775 149.466 68.4969 150.937 68.7877C152.408 69.0785 153.933 68.9278 155.318 68.3546C156.703 67.7813 157.887 66.8113 158.72 65.5671C159.553 64.3228 159.998 62.8602 159.998 61.364C160.008 60.3662 159.818 59.3765 159.439 58.4529C159.06 57.5293 158.501 56.6904 157.793 55.9855C157.085 55.2806 156.243 54.7238 155.316 54.3479C154.39 53.9719 153.397 53.7843 152.397 53.796ZM152.397 65.324C151.877 65.3324 151.361 65.235 150.881 65.0378C150.4 64.8406 149.965 64.5478 149.602 64.1772C149.239 63.8066 148.955 63.366 148.768 62.8823C148.581 62.3986 148.495 61.882 148.515 61.364C148.483 60.8345 148.559 60.304 148.74 59.805C148.92 59.3061 149.202 58.8493 149.566 58.4628C149.93 58.0764 150.37 57.7684 150.858 57.5579C151.346 57.3473 151.872 57.2387 152.404 57.2387C152.936 57.2387 153.462 57.3473 153.95 57.5579C154.438 57.7684 154.878 58.0764 155.242 58.4628C155.607 58.8493 155.888 59.3061 156.069 59.805C156.249 60.304 156.326 60.8345 156.293 61.364C156.313 61.8833 156.227 62.4011 156.039 62.8858C155.851 63.3705 155.566 63.8118 155.201 64.1826C154.836 64.5534 154.399 64.846 153.917 65.0422C153.435 65.2385 152.918 65.3344 152.397 65.324ZM166.129 56.6707V54.1334H162.424V68.4774H166.129V61.6867C166.102 61.1329 166.205 60.5805 166.429 60.0731C166.654 59.5657 166.993 59.1173 167.421 58.7632C167.848 58.4091 168.353 58.1589 168.894 58.0325C169.435 57.9061 169.998 57.9068 170.539 58.0347V53.9134C169.606 53.8468 168.676 54.0781 167.883 54.5738C167.09 55.0695 166.476 55.8038 166.129 56.6707ZM183.301 55.8934C182.74 55.2033 182.025 54.654 181.213 54.2897C180.401 53.9254 179.515 53.7563 178.625 53.796C177.669 53.8337 176.729 54.0597 175.86 54.461C174.992 54.8623 174.211 55.4309 173.563 56.1343C172.916 56.8376 172.414 57.6617 172.087 58.5593C171.759 59.4568 171.613 60.41 171.657 61.364C171.613 62.3181 171.759 63.2713 172.087 64.1688C172.414 65.0664 172.916 65.8905 173.563 66.5938C174.211 67.2972 174.992 67.8658 175.86 68.2671C176.729 68.6684 177.669 68.8944 178.625 68.932C179.515 68.9717 180.401 68.8027 181.213 68.4384C182.025 68.0741 182.74 67.5248 183.301 66.8347V68.536H187.006V54.1334H183.301V55.8934ZM179.316 65.412C178.782 65.4312 178.249 65.339 177.752 65.1413C177.255 64.9437 176.805 64.6449 176.43 64.2641C176.055 63.8832 175.764 63.4287 175.575 62.9294C175.386 62.4301 175.303 61.897 175.332 61.364C175.332 60.3138 175.75 59.3065 176.495 58.5639C177.239 57.8213 178.249 57.404 179.302 57.404C180.355 57.404 181.364 57.8213 182.109 58.5639C182.853 59.3065 183.271 60.3138 183.271 61.364C183.298 61.8939 183.214 62.4235 183.026 62.9197C182.838 63.416 182.55 63.8682 182.178 64.2481C181.807 64.628 181.362 64.9275 180.869 65.1278C180.377 65.328 179.848 65.4248 179.316 65.412ZM198.223 53.796C197.398 53.7419 196.572 53.8979 195.824 54.2494C195.076 54.6008 194.429 55.1363 193.945 55.8054V54.1334H190.255V68.4774H193.945V60.792C193.945 58.2987 195.298 57.2427 197.106 57.2427C197.495 57.2147 197.885 57.2722 198.249 57.4112C198.613 57.5502 198.942 57.7672 199.213 58.0471C199.483 58.3269 199.689 58.6626 199.816 59.0305C199.942 59.3984 199.986 59.7894 199.944 60.176V68.5214H203.649V59.7214C203.649 55.9227 201.267 53.796 198.223 53.796ZM217.674 55.9814C217.145 55.273 216.451 54.7038 215.652 54.3231C214.852 53.9423 213.972 53.7614 213.087 53.796C212.134 53.8036 211.191 54 210.314 54.3737C209.437 54.7475 208.643 55.2912 207.979 55.9734C207.314 56.6556 206.792 57.4626 206.442 58.3477C206.093 59.2327 205.923 60.1783 205.942 61.1294C205.921 62.081 206.089 63.0274 206.438 63.9134C206.787 64.7993 207.309 65.6071 207.974 66.2897C208.639 66.9723 209.434 67.5159 210.312 67.889C211.19 68.2621 212.133 68.4571 213.087 68.4627C213.972 68.4973 214.852 68.3165 215.652 67.9357C216.451 67.555 217.145 66.9858 217.674 66.2774V67.832C217.706 68.3218 217.63 68.8126 217.449 69.2692C217.269 69.7258 216.99 70.1371 216.631 70.4734C216.273 70.8098 215.845 71.063 215.377 71.2149C214.909 71.3668 214.413 71.4136 213.925 71.352C213.167 71.4453 212.398 71.3022 211.724 70.9425C211.05 70.5828 210.505 70.024 210.162 69.3427L207.001 71.1614C207.703 72.3134 208.709 73.2501 209.91 73.8685C211.111 74.4869 212.46 74.7631 213.808 74.6667C217.586 74.6667 221.291 72.54 221.291 67.8467V54.1334H217.674V55.9814ZM213.661 65.06C212.889 65.0427 212.139 64.7988 211.506 64.3588C210.872 63.9187 210.383 63.3021 210.099 62.5861C209.815 61.87 209.749 61.0863 209.909 60.3329C210.069 59.5796 210.448 58.89 210.999 58.3505C211.55 57.811 212.248 57.4456 213.006 57.2998C213.764 57.1541 214.548 57.2345 215.261 57.5311C215.973 57.8276 216.582 58.3272 217.011 58.9672C217.441 59.6072 217.671 60.3593 217.674 61.1294C217.689 61.6558 217.595 62.1796 217.397 62.668C217.2 63.1564 216.903 63.5989 216.527 63.9679C216.15 64.3368 215.701 64.6242 215.208 64.8121C214.715 65.0001 214.188 65.0845 213.661 65.06ZM231.377 53.796C230.377 53.7716 229.382 53.951 228.454 54.3235C227.525 54.6959 226.683 55.2534 225.978 55.9619C225.274 56.6704 224.721 57.515 224.355 58.4439C223.989 59.3728 223.817 60.3665 223.849 61.364C223.814 62.3914 223.995 63.4147 224.382 64.3676C224.768 65.3205 225.351 66.1817 226.093 66.8953C226.834 67.609 227.718 68.159 228.687 68.5099C229.655 68.8608 230.687 69.0046 231.715 68.932C232.923 68.9766 234.123 68.7196 235.207 68.1844C236.29 67.6491 237.223 66.8524 237.919 65.8667L234.979 64.1507C234.591 64.6253 234.099 65.0044 233.54 65.2588C232.982 65.5131 232.373 65.6358 231.759 65.6174C230.868 65.7325 229.966 65.5249 229.216 65.0323C228.466 64.5397 227.918 63.7949 227.672 62.9334H238.551C238.643 62.4496 238.692 61.9589 238.698 61.4667C238.757 60.4751 238.61 59.4821 238.268 58.5494C237.926 57.6166 237.395 56.7641 236.708 56.0447C236.021 55.3254 235.194 54.7546 234.277 54.3677C233.36 53.9809 232.372 53.7863 231.377 53.796ZM227.613 60C227.767 59.134 228.237 58.3553 228.931 57.8137C229.626 57.2722 230.497 57.0061 231.377 57.0667C232.227 57.0353 233.06 57.3168 233.716 57.8576C234.372 58.3984 234.805 59.1609 234.935 60H227.613ZM251.989 55.8787C251.433 55.1994 250.727 54.6578 249.926 54.2965C249.125 53.9351 248.251 53.7638 247.373 53.796C246.416 53.8337 245.476 54.0597 244.608 54.461C243.739 54.8623 242.958 55.4309 242.311 56.1343C241.663 56.8376 241.161 57.6617 240.834 58.5593C240.507 59.4568 240.361 60.41 240.404 61.364C240.361 62.3181 240.507 63.2713 240.834 64.1688C241.161 65.0664 241.663 65.8905 242.311 66.5938C242.958 67.2972 243.739 67.8658 244.608 68.2671C245.476 68.6684 246.416 68.8944 247.373 68.932C248.262 68.9717 249.149 68.8027 249.961 68.4384C250.773 68.0741 251.488 67.5248 252.048 66.8347V68.536H255.753V54.1334H252.048L251.989 55.8787ZM248.005 65.3974C247.473 65.4123 246.943 65.3171 246.45 65.1176C245.956 64.9181 245.51 64.6187 245.138 64.2383C244.766 63.8579 244.478 63.4048 244.29 62.9076C244.103 62.4103 244.021 61.8798 244.05 61.3494C244.05 60.2991 244.468 59.2919 245.213 58.5492C245.957 57.8066 246.967 57.3894 248.02 57.3894C249.072 57.3894 250.082 57.8066 250.827 58.5492C251.571 59.2919 251.989 60.2991 251.989 61.3494C252.018 61.883 251.935 62.4167 251.746 62.9167C251.558 63.4168 251.267 63.8722 250.892 64.2542C250.517 64.6362 250.067 64.9363 249.57 65.1356C249.073 65.3349 248.54 65.4291 248.005 65.412V65.3974ZM262.634 56.5974V54.1334H258.929V68.4774H262.634V61.6867C262.607 61.1329 262.71 60.5805 262.934 60.0731C263.159 59.5657 263.498 59.1173 263.926 58.7632C264.353 58.4091 264.858 58.1589 265.399 58.0325C265.94 57.9061 266.503 57.9068 267.044 58.0347V53.9134C266.111 53.8468 265.181 54.0781 264.388 54.5738C263.595 55.0695 262.98 55.8038 262.634 56.6707V56.5974Z" fill="white"/>
</g>
<defs>
<clipPath id="clip0">
<rect width="174" height="44" fill="white" transform="translate(93 38)"/>
</clipPath>
</defs>
</svg>
